<svg width="21" height="21" viewBox="0 0 21 21" fill="none" xmlns="http://www.w3.org/2000/svg">
<g clip-path="url(#clip0_1_348)">
<mask id="mask0_1_348" style="mask-type:luminance" maskUnits="userSpaceOnUse" x="0" y="0" width="21" height="21">
<path d="M0.359375 0.421875H20.3594V20.4219H0.359375V0.421875Z" fill="white"/>
</mask>
<g mask="url(#mask0_1_348)">
<path d="M19.2552 0.421875H1.46354C0.853542 0.421875 0.359375 0.916042 0.359375 1.52604V19.3185C0.359375 19.9277 0.853542 20.4219 1.46354 20.4219H11.0427V12.6769H8.43604V9.65854H11.0427V7.43271C11.0427 4.84938 12.6202 3.44271 14.9252 3.44271C16.0294 3.44271 16.9777 3.52521 17.2544 3.56187V6.26187L15.656 6.26271C14.4027 6.26271 14.1602 6.85854 14.1602 7.73187V9.65938H17.1494L16.7602 12.6777H14.1602V20.4219H19.2569C19.8652 20.4219 20.3594 19.9277 20.3594 19.3177V1.52604C20.3594 0.916042 19.8652 0.421875 19.2552 0.421875Z" fill="#869AB8"/>
</g>
</g>
<defs>
<clipPath id="clip0_1_348">
<rect width="20" height="20" fill="white" transform="translate(0.359375 0.421875)"/>
</clipPath>
</defs>
</svg>
