<svg width="21" height="21" viewBox="0 0 21 21" fill="none" xmlns="http://www.w3.org/2000/svg">
<g clip-path="url(#clip0_1_362)">
<path fill-rule="evenodd" clip-rule="evenodd" d="M10.0781 0.421875C4.55562 0.421875 0.078125 4.89854 0.078125 10.4219C0.078125 14.6585 2.71396 18.2769 6.43396 19.7335C6.34646 18.9427 6.26729 17.7294 6.46896 16.866C6.65062 16.0852 7.64146 11.8952 7.64146 11.8952C7.64146 11.8952 7.34229 11.296 7.34229 10.4102C7.34229 9.02021 8.14812 7.98187 9.15146 7.98187C10.004 7.98187 10.4165 8.62271 10.4165 9.39021C10.4165 10.2477 9.87062 11.5302 9.58812 12.7194C9.35229 13.7144 10.0873 14.5269 11.069 14.5269C12.8465 14.5269 14.2123 12.6527 14.2123 9.94771C14.2123 7.55354 12.4923 5.87937 10.0356 5.87937C7.19063 5.87937 5.52063 8.01354 5.52063 10.2185C5.52063 11.0777 5.85146 12.0002 6.26479 12.5002C6.30017 12.5381 6.32514 12.5845 6.33726 12.6348C6.34938 12.6852 6.34824 12.7379 6.33396 12.7877L6.05646 13.921C6.01229 14.1044 5.91146 14.1435 5.72146 14.0552C4.47229 13.4735 3.69146 11.6477 3.69146 10.181C3.69146 7.02688 5.98313 4.12937 10.299 4.12937C13.7681 4.12937 16.464 6.60187 16.464 9.90521C16.464 13.3519 14.2915 16.1252 11.2748 16.1252C10.2615 16.1252 9.30896 15.5994 8.98312 14.9769L8.35979 17.3544C8.13396 18.2235 7.52479 19.3127 7.11646 19.976C8.05312 20.2652 9.04729 20.4219 10.0781 20.4219C15.6006 20.4219 20.0781 15.9444 20.0781 10.4219C20.0781 4.89854 15.6006 0.421875 10.0781 0.421875Z" fill="#869AB8"/>
</g>
<defs>
<clipPath id="clip0_1_362">
<rect width="20" height="20" fill="white" transform="translate(0.078125 0.421875)"/>
</clipPath>
</defs>
</svg>
