<svg width="21" height="21" viewBox="0 0 21 21" fill="none" xmlns="http://www.w3.org/2000/svg">
<g clip-path="url(#clip0_1_355)">
<mask id="mask0_1_355" style="mask-type:luminance" maskUnits="userSpaceOnUse" x="0" y="0" width="21" height="21">
<path d="M0.71875 0.421875H20.7188V20.4219H0.71875V0.421875Z" fill="white"/>
</mask>
<g mask="url(#mask0_1_355)">
<path d="M20.7188 4.21958C19.9699 4.55147 19.1755 4.76917 18.3621 4.86541C19.2193 4.35306 19.8606 3.54614 20.1663 2.59541C19.3607 3.0734 18.4794 3.41019 17.5604 3.59125C17.1766 3.18158 16.7127 2.85515 16.1975 2.63224C15.6823 2.40933 15.1268 2.29468 14.5654 2.29541C11.9162 2.29541 9.96958 4.76708 10.5679 7.33291C8.93657 7.25125 7.34063 6.82741 5.88372 6.08891C4.42681 5.3504 3.1415 4.31375 2.11125 3.04625C1.58665 3.94962 1.42589 5.0189 1.66166 6.03659C1.89742 7.05427 2.51202 7.94393 3.38042 8.52458C2.72918 8.50402 2.0923 8.32802 1.52292 8.01125C1.47792 9.91208 2.84042 11.6904 4.81375 12.0862C4.20936 12.2504 3.57547 12.2743 2.96042 12.1562C3.22251 12.9716 3.73294 13.6845 4.42028 14.1954C5.10763 14.7063 5.93749 14.9895 6.79375 15.0054C5.07392 16.3545 2.889 16.9659 0.71875 16.7054C2.59501 17.9109 4.77861 18.5508 7.00875 18.5487C14.6271 18.5487 18.9312 12.1146 18.6712 6.34375C19.4744 5.76277 20.1677 5.0435 20.7188 4.21958Z" fill="#869AB8"/>
</g>
</g>
<defs>
<clipPath id="clip0_1_355">
<rect width="20" height="20" fill="white" transform="translate(0.71875 0.421875)"/>
</clipPath>
</defs>
</svg>
