<svg width="88" height="31" viewBox="0 0 88 31" fill="none" xmlns="http://www.w3.org/2000/svg">
<path d="M6.61932 8.32955V22.875H4.85795V10.1761H4.77273L1.22159 12.5341V10.7443L4.85795 8.32955H6.61932ZM15.3369 23.0739C14.2668 23.0739 13.3553 22.7827 12.6025 22.2003C11.8497 21.6132 11.2744 20.7633 10.8766 19.6506C10.4789 18.5331 10.2801 17.1837 10.2801 15.6023C10.2801 14.0303 10.4789 12.688 10.8766 11.5753C11.2791 10.4579 11.8568 9.60559 12.6096 9.01847C13.3672 8.42661 14.2763 8.13068 15.3369 8.13068C16.3975 8.13068 17.3042 8.42661 18.057 9.01847C18.8146 9.60559 19.3923 10.4579 19.79 11.5753C20.1925 12.688 20.3937 14.0303 20.3937 15.6023C20.3937 17.1837 20.1948 18.5331 19.7971 19.6506C19.3994 20.7633 18.8241 21.6132 18.0712 22.2003C17.3184 22.7827 16.407 23.0739 15.3369 23.0739ZM15.3369 21.5114C16.3975 21.5114 17.2213 21 17.8085 19.9773C18.3956 18.9545 18.6891 17.4962 18.6891 15.6023C18.6891 14.3428 18.5542 13.2704 18.2843 12.3849C18.0192 11.4995 17.6356 10.8248 17.1337 10.3608C16.6366 9.89678 16.0376 9.66477 15.3369 9.66477C14.2857 9.66477 13.4642 10.1832 12.8724 11.2202C12.2805 12.2524 11.9846 13.7131 11.9846 15.6023C11.9846 16.8617 12.1172 17.9318 12.3823 18.8125C12.6475 19.6932 13.0286 20.3632 13.5258 20.8224C14.0277 21.2817 14.6314 21.5114 15.3369 21.5114ZM27.6269 23.0739C26.5568 23.0739 25.6453 22.7827 24.8925 22.2003C24.1397 21.6132 23.5644 20.7633 23.1666 19.6506C22.7689 18.5331 22.5701 17.1837 22.5701 15.6023C22.5701 14.0303 22.7689 12.688 23.1666 11.5753C23.5691 10.4579 24.1468 9.60559 24.8996 9.01847C25.6572 8.42661 26.5663 8.13068 27.6269 8.13068C28.6875 8.13068 29.5942 8.42661 30.347 9.01847C31.1046 9.60559 31.6823 10.4579 32.08 11.5753C32.4825 12.688 32.6837 14.0303 32.6837 15.6023C32.6837 17.1837 32.4848 18.5331 32.0871 19.6506C31.6894 20.7633 31.1141 21.6132 30.3612 22.2003C29.6084 22.7827 28.697 23.0739 27.6269 23.0739ZM27.6269 21.5114C28.6875 21.5114 29.5113 21 30.0985 19.9773C30.6856 18.9545 30.9791 17.4962 30.9791 15.6023C30.9791 14.3428 30.8442 13.2704 30.5743 12.3849C30.3092 11.4995 29.9256 10.8248 29.4237 10.3608C28.9266 9.89678 28.3276 9.66477 27.6269 9.66477C26.5757 9.66477 25.7542 10.1832 25.1624 11.2202C24.5705 12.2524 24.2746 13.7131 24.2746 15.6023C24.2746 16.8617 24.4072 17.9318 24.6723 18.8125C24.9375 19.6932 25.3186 20.3632 25.8158 20.8224C26.3177 21.2817 26.9214 21.5114 27.6269 21.5114ZM42.5873 20.1477V19.3807C42.5873 18.8504 42.6962 18.3651 42.914 17.9247C43.1366 17.4796 43.4585 17.1245 43.8799 16.8594C44.3061 16.5895 44.8222 16.4545 45.4282 16.4545C46.0438 16.4545 46.5599 16.5895 46.9765 16.8594C47.3932 17.1245 47.7081 17.4796 47.9211 17.9247C48.1342 18.3651 48.2407 18.8504 48.2407 19.3807V20.1477C48.2407 20.678 48.1318 21.1657 47.914 21.6108C47.701 22.0511 47.3837 22.4062 46.9623 22.6761C46.5457 22.9413 46.0343 23.0739 45.4282 23.0739C44.8127 23.0739 44.2942 22.9413 43.8728 22.6761C43.4514 22.4062 43.1318 22.0511 42.914 21.6108C42.6962 21.1657 42.5873 20.678 42.5873 20.1477ZM44.0362 19.3807V20.1477C44.0362 20.5881 44.1404 20.9834 44.3487 21.3338C44.557 21.6795 44.9169 21.8523 45.4282 21.8523C45.9254 21.8523 46.2758 21.6795 46.4794 21.3338C46.6877 20.9834 46.7919 20.5881 46.7919 20.1477V19.3807C46.7919 18.9403 46.6924 18.5473 46.4936 18.2017C46.2947 17.8513 45.9396 17.6761 45.4282 17.6761C44.9311 17.6761 44.5736 17.8513 44.3558 18.2017C44.1427 18.5473 44.0362 18.9403 44.0362 19.3807ZM35.343 11.8239V11.0568C35.343 10.5265 35.4519 10.0412 35.6697 9.60085C35.8923 9.15578 36.2142 8.80066 36.6356 8.53551C37.0618 8.26562 37.5779 8.13068 38.1839 8.13068C38.7994 8.13068 39.3155 8.26562 39.7322 8.53551C40.1489 8.80066 40.4637 9.15578 40.6768 9.60085C40.8899 10.0412 40.9964 10.5265 40.9964 11.0568V11.8239C40.9964 12.3542 40.8875 12.8419 40.6697 13.2869C40.4566 13.7273 40.1394 14.0824 39.718 14.3523C39.3013 14.6174 38.79 14.75 38.1839 14.75C37.5684 14.75 37.0499 14.6174 36.6285 14.3523C36.2071 14.0824 35.8875 13.7273 35.6697 13.2869C35.4519 12.8419 35.343 12.3542 35.343 11.8239ZM36.7919 11.0568V11.8239C36.7919 12.2642 36.896 12.6596 37.1044 13.0099C37.3127 13.3556 37.6726 13.5284 38.1839 13.5284C38.6811 13.5284 39.0315 13.3556 39.2351 13.0099C39.4434 12.6596 39.5476 12.2642 39.5476 11.8239V11.0568C39.5476 10.6165 39.4481 10.2235 39.2493 9.87784C39.0504 9.52746 38.6953 9.35227 38.1839 9.35227C37.6868 9.35227 37.3293 9.52746 37.1115 9.87784C36.8984 10.2235 36.7919 10.6165 36.7919 11.0568ZM35.8828 22.875L45.8828 8.32955H47.5021L37.5021 22.875H35.8828Z" fill="#161C2D"/>
</svg>
