<svg width="59" height="31" viewBox="0 0 59 31" fill="none" xmlns="http://www.w3.org/2000/svg">
<path d="M7.16619 8.32955V22.875H5.40483V10.1761H5.3196L1.76847 12.5341V10.7443L5.40483 8.32955H7.16619ZM15.8837 23.0739C14.8137 23.0739 13.9022 22.7827 13.1494 22.2003C12.3965 21.6132 11.8213 20.7633 11.4235 19.6506C11.0258 18.5331 10.8269 17.1837 10.8269 15.6023C10.8269 14.0303 11.0258 12.688 11.4235 11.5753C11.826 10.4579 12.4036 9.60559 13.1565 9.01847C13.9141 8.42661 14.8231 8.13068 15.8837 8.13068C16.9444 8.13068 17.8511 8.42661 18.6039 9.01847C19.3615 9.60559 19.9391 10.4579 20.3369 11.5753C20.7393 12.688 20.9406 14.0303 20.9406 15.6023C20.9406 17.1837 20.7417 18.5331 20.344 19.6506C19.9462 20.7633 19.371 21.6132 18.6181 22.2003C17.8653 22.7827 16.9538 23.0739 15.8837 23.0739ZM15.8837 21.5114C16.9444 21.5114 17.7682 21 18.3553 19.9773C18.9425 18.9545 19.236 17.4962 19.236 15.6023C19.236 14.3428 19.1011 13.2704 18.8312 12.3849C18.566 11.4995 18.1825 10.8248 17.6806 10.3608C17.1835 9.89678 16.5845 9.66477 15.8837 9.66477C14.8326 9.66477 14.0111 10.1832 13.4193 11.2202C12.8274 12.2524 12.5315 13.7131 12.5315 15.6023C12.5315 16.8617 12.6641 17.9318 12.9292 18.8125C13.1944 19.6932 13.5755 20.3632 14.0727 20.8224C14.5746 21.2817 15.1783 21.5114 15.8837 21.5114ZM28.1737 23.0739C27.1037 23.0739 26.1922 22.7827 25.4394 22.2003C24.6865 21.6132 24.1113 20.7633 23.7135 19.6506C23.3158 18.5331 23.1169 17.1837 23.1169 15.6023C23.1169 14.0303 23.3158 12.688 23.7135 11.5753C24.116 10.4579 24.6936 9.60559 25.4465 9.01847C26.2041 8.42661 27.1131 8.13068 28.1737 8.13068C29.2344 8.13068 30.1411 8.42661 30.8939 9.01847C31.6515 9.60559 32.2291 10.4579 32.6269 11.5753C33.0293 12.688 33.2306 14.0303 33.2306 15.6023C33.2306 17.1837 33.0317 18.5331 32.634 19.6506C32.2362 20.7633 31.661 21.6132 30.9081 22.2003C30.1553 22.7827 29.2438 23.0739 28.1737 23.0739ZM28.1737 21.5114C29.2344 21.5114 30.0582 21 30.6453 19.9773C31.2325 18.9545 31.526 17.4962 31.526 15.6023C31.526 14.3428 31.3911 13.2704 31.1212 12.3849C30.856 11.4995 30.4725 10.8248 29.9706 10.3608C29.4735 9.89678 28.8745 9.66477 28.1737 9.66477C27.1226 9.66477 26.3011 10.1832 25.7093 11.2202C25.1174 12.2524 24.8215 13.7131 24.8215 15.6023C24.8215 16.8617 24.9541 17.9318 25.2192 18.8125C25.4844 19.6932 25.8655 20.3632 26.3627 20.8224C26.8646 21.2817 27.4683 21.5114 28.1737 21.5114ZM37.3103 18.8977L37.2819 16.8239H37.6228L42.3956 11.9659H44.4694L39.3842 17.108H39.2422L37.3103 18.8977ZM35.7478 22.875V8.32955H37.424V22.875H35.7478ZM42.6797 22.875L38.4183 17.4773L39.6115 16.3125L44.8103 22.875H42.6797ZM49.7601 21.8807V12.5057H51.3511V21.8807H49.7601ZM45.8681 17.9886V16.3977H55.2431V17.9886H45.8681Z" fill="#161C2D"/>
</svg>
