<svg width="152" height="55" viewBox="0 0 152 55" fill="none" xmlns="http://www.w3.org/2000/svg">
<g clip-path="url(#clip0_1_192)">
<path d="M79.6783 16.6644C79.6783 18.2082 78.4341 19.4512 76.8901 19.4512C75.3461 19.4512 74.1028 18.2082 74.1028 16.6644C74.1028 15.1207 75.3037 13.8777 76.8901 13.8777C78.4778 13.9205 79.6783 15.164 79.6783 16.6644ZM68.1846 22.2817V22.9679C68.1846 22.9679 66.8557 21.252 64.0251 21.252C59.3511 21.252 55.7053 24.8111 55.7053 29.7417C55.7053 34.6298 59.3082 38.2313 64.0251 38.2313C66.8985 38.2313 68.1846 36.4734 68.1846 36.4734V37.202C68.1846 37.5451 68.4425 37.8017 68.7853 37.8017H72.2585V21.6794H68.7853C68.4425 21.6807 68.1846 21.9814 68.1846 22.2817ZM68.1846 32.6145C67.542 33.5582 66.2551 34.3728 64.7115 34.3728C61.967 34.3728 59.8652 32.6577 59.8652 29.7417C59.8652 26.8259 61.967 25.1109 64.7115 25.1109C66.2126 25.1109 67.5848 25.9684 68.1846 26.8688V32.6145ZM74.832 21.6807H78.9486V37.803H74.832V21.6807ZM136.329 21.2515C133.499 21.2515 132.169 22.9674 132.169 22.9674V13.9205H128.052V37.803H131.526C131.87 37.803 132.126 37.5027 132.126 37.2024V36.4739C132.126 36.4739 133.456 38.2318 136.286 38.2318C140.961 38.2318 144.606 34.6311 144.606 29.7429C144.606 24.8547 140.961 21.2515 136.329 21.2515ZM135.643 34.3296C134.056 34.3296 132.812 33.5157 132.169 32.5717V26.8259C132.812 25.9684 134.185 25.068 135.643 25.068C138.387 25.068 140.489 26.7831 140.489 29.6988C140.489 32.6145 138.388 34.3296 135.643 34.3296ZM125.908 28.2416V37.8458H121.791V28.7128C121.791 26.0549 120.933 24.9823 118.619 24.9823C117.376 24.9823 116.089 25.6258 115.273 26.5693V37.8034H111.157V21.6812H114.415C114.758 21.6812 115.015 21.9815 115.015 22.2817V22.968C116.216 21.7241 117.803 21.252 119.389 21.252C121.191 21.252 122.692 21.7673 123.893 22.7962C125.35 23.9968 125.908 25.5401 125.908 28.2417L125.908 28.2416ZM101.163 21.2515C98.3333 21.2515 97.0035 22.9674 97.0035 22.9674V13.9205H92.8869V37.803H96.36C96.7032 37.803 96.9607 37.5027 96.9607 37.2024V36.4739C96.9607 36.4739 98.2905 38.2318 101.12 38.2318C105.795 38.2318 109.44 34.6311 109.44 29.7429C109.483 24.8543 105.838 21.2515 101.163 21.2515ZM100.477 34.3296C98.8903 34.3296 97.647 33.5157 97.0035 32.5717V26.8259C97.647 25.9684 99.0192 25.068 100.477 25.068C103.222 25.068 105.323 26.7831 105.323 29.6988C105.323 32.6145 103.222 34.3296 100.477 34.3296ZM89.3271 21.2515C90.5704 21.2515 91.2138 21.4666 91.2138 21.4666V25.2822C91.2138 25.2822 87.783 24.1244 85.6393 26.5689V37.8454H81.5217V21.6807H84.9957C85.3389 21.6807 85.5955 21.9809 85.5955 22.2812V22.9674C86.3684 22.0666 88.041 21.2515 89.3271 21.2515L89.3271 21.2515ZM46.5714 36.3449C46.3572 35.8305 46.1425 35.2732 45.9283 34.8012C45.5847 34.0298 45.2416 33.3003 44.9421 32.6145L44.8992 32.5717C41.9397 26.1398 38.7668 19.623 35.4213 13.1919L35.2929 12.9341C34.941 12.2669 34.598 11.595 34.2642 10.9187C33.8349 10.1464 33.4065 9.33261 32.7201 8.56027C31.3479 6.84518 29.3751 5.90161 27.2741 5.90161C25.1295 5.90161 23.1998 6.84524 21.7852 8.47419C21.1417 9.24565 20.6696 10.0603 20.2412 10.8326C19.9065 11.5085 19.5636 12.1804 19.2126 12.848L19.0836 13.1058C15.7814 19.5369 12.5652 26.0541 9.60613 32.4856L9.56286 32.5708C9.26294 33.2579 8.91936 33.9865 8.57623 34.7575C8.36202 35.2295 8.14776 35.744 7.93355 36.3012C7.37577 37.8874 7.20396 39.3882 7.41904 40.9324C7.89072 44.1484 10.0345 46.8487 12.9941 48.0501C14.1092 48.5221 15.2672 48.7364 16.4677 48.7364C16.8108 48.7364 17.2393 48.6935 17.5828 48.6502C18.9984 48.4789 20.4563 48.0077 21.8717 47.193C23.63 46.2065 25.3025 44.7922 27.1893 42.734C29.076 44.7922 30.7914 46.2065 32.5068 47.193C33.9227 48.0077 35.3802 48.4789 36.7953 48.6502C37.1385 48.6939 37.5677 48.7363 37.9109 48.7363C39.1118 48.7363 40.3121 48.5222 41.3841 48.0501C44.3864 46.8487 46.4874 44.1055 46.9595 40.9324C47.3001 39.4319 47.1287 37.9319 46.5714 36.3449ZM27.2308 38.5744C24.9148 35.6587 23.4136 32.9147 22.8995 30.6C22.6853 29.6136 22.6421 28.756 22.771 27.9842C22.8563 27.2979 23.1142 26.6974 23.4573 26.183C24.2722 25.026 25.6444 24.2966 27.2313 24.2966C28.8186 24.2966 30.2336 24.9828 31.0056 26.183C31.3488 26.6974 31.6058 27.2984 31.6924 27.9842C31.8205 28.7565 31.7776 29.6564 31.5634 30.6C31.0472 32.872 29.546 35.6163 27.2308 38.5744ZM44.341 40.5898C44.0412 42.8193 42.5399 44.7493 40.439 45.6069C39.4099 46.0352 38.2943 46.1641 37.18 46.0352C36.1081 45.9063 35.0353 45.5632 33.921 44.9207C32.377 44.0623 30.8334 42.734 29.0319 40.7611C31.862 37.2885 33.5774 34.115 34.221 31.2858C34.5213 29.9563 34.5645 28.756 34.4351 27.6406C34.2642 26.569 33.8778 25.5825 33.2775 24.7249C31.9473 22.7948 29.717 21.6807 27.2304 21.6807C24.7439 21.6807 22.5135 22.8385 21.1841 24.7249C20.584 25.5825 20.1975 26.5689 20.0261 27.6407C19.8548 28.756 19.8971 29.9991 20.2403 31.2858C20.8833 34.115 22.6416 37.331 25.4289 40.8039C23.6707 42.7764 22.0838 44.106 20.5398 44.9635C19.4246 45.6069 18.3532 45.95 17.2813 46.0781C16.1761 46.2015 15.0575 46.0544 14.0218 45.6497C11.9209 44.7921 10.4197 42.8621 10.1198 40.6326C9.99127 39.5609 10.0765 38.4891 10.5058 37.2886C10.6339 36.8593 10.849 36.431 11.0632 35.9166C11.3635 35.2304 11.7058 34.5009 12.0494 33.7723L12.0926 33.6871C15.0513 27.298 18.2246 20.7808 21.5268 14.4354L21.6554 14.1775C21.999 13.535 22.3421 12.8488 22.6849 12.2055C23.0281 11.5192 23.4136 10.8759 23.8858 10.3182C24.7863 9.29017 25.9867 8.73205 27.3165 8.73205C28.6463 8.73205 29.8468 9.29017 30.7473 10.3182C31.2194 10.8772 31.605 11.5205 31.9482 12.2054C32.2917 12.8488 32.6349 13.535 32.9772 14.1775L33.1062 14.4354C36.3581 20.8071 39.4892 27.2398 42.498 33.7299V33.7727C42.8415 34.4598 43.1415 35.2308 43.4846 35.9178C43.6988 36.4314 43.9134 36.8598 44.0419 37.289C44.3843 38.4026 44.5128 39.4752 44.341 40.5897L44.341 40.5898Z" fill="#FF5A5F"/>
</g>
<defs>
<clipPath id="clip0_1_192">
<rect width="151.641" height="54.4062" fill="white" transform="translate(0.171875 0.09375)"/>
</clipPath>
</defs>
</svg>
