<svg width="134" height="49" viewBox="0 0 134 49" fill="none" xmlns="http://www.w3.org/2000/svg">
<g clip-path="url(#clip0_1_52)">
<path d="M69.9124 14.8015C69.9124 16.1586 68.8186 17.2513 67.4612 17.2513C66.1039 17.2513 65.0109 16.1586 65.0109 14.8015C65.0109 13.4444 66.0666 12.3517 67.4612 12.3517C68.857 12.3893 69.9124 13.4825 69.9124 14.8015ZM59.8081 19.7396V20.3428C59.8081 20.3428 58.6398 18.8344 56.1515 18.8344C52.0424 18.8344 48.8373 21.9631 48.8373 26.2976C48.8373 30.5947 52.0047 33.7608 56.1515 33.7608C58.6775 33.7608 59.8081 32.2154 59.8081 32.2154V32.8559C59.8081 33.1576 60.0349 33.3831 60.3362 33.3831H63.3895V19.2101H60.3362C60.0349 19.2113 59.8081 19.4756 59.8081 19.7396ZM59.8081 28.823C59.2432 29.6526 58.1118 30.3688 56.7548 30.3688C54.3422 30.3688 52.4944 28.8611 52.4944 26.2976C52.4944 23.7343 54.3421 22.2267 56.7548 22.2267C58.0745 22.2267 59.2808 22.9805 59.8081 23.772V28.823ZM65.6519 19.2113H69.2709V33.3842H65.6519V19.2113ZM119.715 18.834C117.227 18.834 116.058 20.3424 116.058 20.3424V12.3893H112.439V33.3842H115.493C115.794 33.3842 116.02 33.1202 116.02 32.8562V32.2158C116.02 32.2158 117.189 33.7612 119.677 33.7612C123.786 33.7612 126.991 30.5959 126.991 26.2987C126.991 22.0015 123.787 18.834 119.715 18.834ZM119.112 30.3308C117.716 30.3308 116.623 29.6153 116.058 28.7854V23.7344C116.623 22.9805 117.83 22.189 119.112 22.189C121.524 22.189 123.372 23.6967 123.372 26.2599C123.372 28.8231 121.525 30.3308 119.112 30.3308ZM110.554 24.9789V33.4219H106.934V25.3931C106.934 23.0566 106.18 22.1137 104.146 22.1137C103.053 22.1137 101.921 22.6793 101.204 23.5088V33.3846H97.5856V19.2117H100.45C100.752 19.2117 100.978 19.4757 100.978 19.7396V20.3429C102.034 19.2494 103.428 18.8344 104.823 18.8344C106.407 18.8344 107.726 19.2874 108.782 20.1918C110.063 21.2473 110.554 22.6039 110.554 24.9789ZM88.7999 18.834C86.3123 18.834 85.1432 20.3424 85.1432 20.3424V12.3893H81.5242V33.3842H84.5775C84.8792 33.3842 85.1056 33.1202 85.1056 32.8562V32.2158C85.1056 32.2158 86.2746 33.7612 88.7622 33.7612C92.872 33.7612 96.0764 30.5959 96.0764 26.2987C96.1141 22.0011 92.9097 18.834 88.7999 18.834ZM88.1966 30.3308C86.8019 30.3308 85.7089 29.6153 85.1432 28.7854V23.7344C85.7089 22.9805 86.9153 22.189 88.1966 22.189C90.61 22.189 92.457 23.6967 92.457 26.2599C92.457 28.8231 90.61 30.3308 88.1966 30.3308ZM78.3948 18.834C79.4877 18.834 80.0534 19.023 80.0534 19.023V22.3773C80.0534 22.3773 77.0374 21.3595 75.1528 23.5084V33.4215H71.5329V19.2112H74.587C74.8887 19.2112 75.1143 19.4752 75.1143 19.7391V20.3424C75.7937 19.5505 77.2642 18.834 78.3948 18.834ZM40.8076 32.1024C40.6193 31.6502 40.4306 31.1603 40.2423 30.7453C39.9402 30.0672 39.6385 29.4259 39.3753 28.823L39.3376 28.7854C36.7359 23.1312 33.9465 17.4023 31.0054 11.7488L30.8925 11.5221C30.5831 10.9356 30.2817 10.345 29.9881 9.75043C29.6108 9.07152 29.2341 8.35613 28.6308 7.67717C27.4244 6.16945 25.6901 5.33997 23.8431 5.33997C21.9577 5.33997 20.2613 6.1695 19.0177 7.6015C18.452 8.27968 18.037 8.99585 17.6603 9.67476C17.3661 10.269 17.0647 10.8596 16.7561 11.4465L16.6427 11.6731C13.7397 17.3266 10.9123 23.0558 8.31091 28.7098L8.27287 28.7847C8.00921 29.3886 7.70717 30.0292 7.40551 30.707C7.2172 31.1219 7.02884 31.5742 6.84053 32.064C6.35017 33.4584 6.19913 34.7778 6.38821 36.1353C6.80287 38.9624 8.68754 41.3362 11.2893 42.3924C12.2697 42.8073 13.2877 42.9957 14.343 42.9957C14.6447 42.9957 15.0213 42.958 15.3233 42.9199C16.5678 42.7694 17.8495 42.3551 19.0938 41.6389C20.6395 40.7717 22.1099 39.5284 23.7685 37.719C25.4272 39.5284 26.9352 40.7717 28.4432 41.6389C29.688 42.3551 30.9693 42.7693 32.2133 42.9199C32.515 42.9584 32.8923 42.9956 33.194 42.9956C34.2498 42.9956 35.305 42.8074 36.2474 42.3924C38.8868 41.3362 40.7338 38.9247 41.1488 36.1353C41.4482 34.8162 41.2976 33.4975 40.8076 32.1024ZM23.805 34.0624C21.769 31.4992 20.4493 29.087 19.9973 27.0522C19.809 26.185 19.771 25.4311 19.8843 24.7526C19.9593 24.1493 20.186 23.6214 20.4877 23.1692C21.2041 22.1521 22.4104 21.5109 23.8054 21.5109C25.2008 21.5109 26.4448 22.1141 27.1235 23.1692C27.4252 23.6214 27.6512 24.1497 27.7273 24.7526C27.8399 25.4315 27.8022 26.2227 27.6139 27.0522C27.16 29.0494 25.8404 31.4619 23.805 34.0624ZM38.8468 35.8341C38.5832 37.794 37.2635 39.4907 35.4166 40.2446C34.5118 40.6211 33.5311 40.7344 32.5515 40.6211C31.6092 40.5078 30.6661 40.2061 29.6865 39.6414C28.3291 38.8867 26.9721 37.7191 25.3884 35.9847C27.8764 32.932 29.3844 30.1421 29.9502 27.655C30.2142 26.4862 30.2522 25.4311 30.1384 24.4506C29.9881 23.5085 29.6485 22.6412 29.1208 21.8874C27.9513 20.1907 25.9906 19.2112 23.8047 19.2112C21.6187 19.2112 19.658 20.2291 18.4893 21.8874C17.9617 22.6412 17.6219 23.5084 17.4712 24.4506C17.3206 25.4311 17.3579 26.5239 17.6596 27.655C18.2249 30.1421 19.7706 32.9693 22.2209 36.0223C20.6752 37.7563 19.2802 38.9252 17.9229 39.679C16.9425 40.2446 16.0006 40.5462 15.0582 40.6588C14.0867 40.7673 13.1033 40.638 12.1928 40.2822C10.3458 39.5283 9.02612 37.8316 8.7625 35.8717C8.6495 34.9296 8.72446 33.9874 9.10186 32.932C9.21443 32.5547 9.40352 32.1782 9.59183 31.7259C9.85588 31.1227 10.1568 30.4814 10.4588 29.8409L10.4968 29.7659C13.0979 24.1494 15.8876 18.4202 18.7906 12.8419L18.9036 12.6152C19.2057 12.0504 19.5073 11.4472 19.8086 10.8817C20.1104 10.2784 20.4493 9.71279 20.8644 9.22254C21.656 8.31882 22.7113 7.82819 23.8804 7.82819C25.0494 7.82819 26.1048 8.31882 26.8964 9.22254C27.3115 9.71395 27.6504 10.2795 27.9522 10.8816C28.2541 11.4472 28.5559 12.0504 28.8568 12.6152L28.9701 12.8419C31.8289 18.4433 34.5816 24.0982 37.2266 29.8036V29.8412C37.5286 30.4452 37.7923 31.123 38.094 31.727C38.2823 32.1785 38.471 32.555 38.5839 32.9324C38.8849 33.9114 38.9978 34.8543 38.8468 35.8341Z" fill="#869AB8"/>
</g>
<defs>
<clipPath id="clip0_1_52">
<rect width="133.312" height="47.8281" fill="white" transform="translate(0.015625 0.234375)"/>
</clipPath>
</defs>
</svg>
