<svg width="49" height="49" viewBox="0 0 49 49" fill="none" xmlns="http://www.w3.org/2000/svg">
<g clip-path="url(#clip0_1_33)">
<path fill-rule="evenodd" clip-rule="evenodd" d="M11.6562 8.28125H19.6562C20.4519 8.28125 21.215 8.59732 21.7776 9.15993C22.3402 9.72254 22.6562 10.4856 22.6562 11.2812V13.2812C22.6562 14.0769 22.3402 14.84 21.7776 15.4026C21.215 15.9652 20.4519 16.2812 19.6562 16.2812H11.6562C10.8606 16.2812 10.0975 15.9652 9.53493 15.4026C8.97232 14.84 8.65625 14.0769 8.65625 13.2812V11.2812C8.65625 10.4856 8.97232 9.72254 9.53493 9.15993C10.0975 8.59732 10.8606 8.28125 11.6562 8.28125ZM29.6562 32.2812H37.6562C38.4519 32.2812 39.215 32.5973 39.7776 33.1599C40.3402 33.7225 40.6562 34.4856 40.6562 35.2812V37.2812C40.6562 38.0769 40.3402 38.84 39.7776 39.4026C39.215 39.9652 38.4519 40.2812 37.6562 40.2812H29.6562C28.8606 40.2812 28.0975 39.9652 27.5349 39.4026C26.9723 38.84 26.6562 38.0769 26.6562 37.2812V35.2812C26.6562 34.4856 26.9723 33.7225 27.5349 33.1599C28.0975 32.5973 28.8606 32.2812 29.6562 32.2812Z" fill="#335EEA"/>
<path opacity="0.3" fill-rule="evenodd" clip-rule="evenodd" d="M11.6562 20.2812H19.6562C20.4519 20.2812 21.215 20.5973 21.7776 21.1599C22.3402 21.7225 22.6562 22.4856 22.6562 23.2812V37.2812C22.6562 38.0769 22.3402 38.84 21.7776 39.4026C21.215 39.9652 20.4519 40.2812 19.6562 40.2812H11.6562C10.8606 40.2812 10.0975 39.9652 9.53493 39.4026C8.97232 38.84 8.65625 38.0769 8.65625 37.2812V23.2812C8.65625 22.4856 8.97232 21.7225 9.53493 21.1599C10.0975 20.5973 10.8606 20.2812 11.6562 20.2812ZM29.6562 8.28125H37.6562C38.4519 8.28125 39.215 8.59732 39.7776 9.15993C40.3402 9.72254 40.6562 10.4856 40.6562 11.2812V25.2812C40.6562 26.0769 40.3402 26.84 39.7776 27.4026C39.215 27.9652 38.4519 28.2812 37.6562 28.2812H29.6562C28.8606 28.2812 28.0975 27.9652 27.5349 27.4026C26.9723 26.84 26.6562 26.0769 26.6562 25.2812V11.2812C26.6562 10.4856 26.9723 9.72254 27.5349 9.15993C28.0975 8.59732 28.8606 8.28125 29.6562 8.28125Z" fill="#335EEA"/>
</g>
<defs>
<clipPath id="clip0_1_33">
<rect width="48" height="48" fill="white" transform="translate(0.65625 0.28125)"/>
</clipPath>
</defs>
</svg>
