<svg width="86" height="20" viewBox="0 0 86 20" fill="none" xmlns="http://www.w3.org/2000/svg">
<path d="M1.133 18.3908H11.188V15.5778H4.109V1.83177H1.133V18.3908ZM16.508 18.6248C17.902 18.6248 19.145 18.1798 20.152 16.7148L20.34 18.3908H22.695V11.2888C22.695 8.42977 20.82 6.43777 17.633 6.43777C15.324 6.43777 13.836 7.46877 12.711 9.00377L14.902 10.5858C15.406 9.73077 16.309 8.93377 17.656 8.93377C19.168 8.93377 19.965 9.91777 19.965 11.4068H16.918C14.293 11.4068 12.254 12.2498 12.254 14.7928C12.254 17.2428 14.105 18.6248 16.508 18.6248ZM16.918 16.2108C15.805 16.2108 15.184 15.6608 15.184 14.8868C15.184 14.1488 15.781 13.4688 17.082 13.4688H19.965C19.918 14.9338 18.547 16.2108 16.918 16.2108ZM25.754 18.3908H28.59V11.9808C28.59 9.94077 29.621 9.07477 31.227 9.07477C32.691 9.07477 33.465 10.1878 33.465 11.7228V18.3908H36.289V11.3598C36.289 8.90977 35.117 6.43777 32.047 6.43777C30.898 6.43777 29.527 6.89477 28.59 8.04277V6.68377H25.754V18.3908ZM46.766 1.83177V7.85577C45.957 6.84777 44.656 6.43777 43.438 6.43777C40.191 6.43777 38.41 9.29777 38.41 12.5318C38.41 15.8018 40.191 18.6248 43.484 18.6248C44.785 18.6248 46.074 18.1798 46.883 17.0778L47.012 18.3908H49.672V1.83177H46.766ZM44.176 16.0358C42.207 16.0358 41.316 14.4998 41.316 12.5318C41.316 10.5858 42.207 9.02777 44.176 9.02777C46.144 9.02777 47.012 10.5628 47.012 12.5318C47.012 14.5238 46.145 16.0358 44.176 16.0358ZM53.129 18.3908H55.989V14.9568L57.793 12.9648L61.227 18.3908H64.602L59.738 11.2188L64.121 6.68377H60.406L55.988 11.5468V1.83177H53.128V18.3908H53.129ZM66.137 4.46877H69.113V1.83177H66.137V4.46877ZM66.207 18.3908H69.043V6.68377H66.207V18.3908ZM76.602 18.6248C77.41 18.6248 78.277 18.4378 78.711 18.2738V15.6838C78.324 15.8718 77.68 16.1058 77.082 16.1058C76.332 16.1058 75.758 15.7778 75.758 14.6528V9.07477H78.711V6.68377H75.758V1.73877L72.968 3.77777V6.68377H71.035V9.07377H72.922V15.1568C72.922 17.2888 74.293 18.6248 76.602 18.6248ZM81.934 18.3908H84.804V15.2968H81.934V18.3908Z" fill="#335EEA"/>
<path d="M1.13301 18.3905H0.833008V18.6905H1.13301V18.3905ZM11.188 18.3905V18.6905H11.488V18.3905H11.188ZM11.188 15.5775H11.488V15.2775H11.188V15.5775ZM4.10901 15.5775H3.80901V15.8775H4.10901V15.5775ZM4.10901 1.83146H4.40901V1.53146H4.10901V1.83146ZM1.13301 1.83146V1.53146H0.833008V1.83146H1.13301ZM1.13301 18.6905H11.188V18.0905H1.13301V18.6905ZM11.488 18.3905V15.5775H10.888V18.3905H11.488ZM11.188 15.2775H4.10901V15.8775H11.188V15.2775ZM4.40901 15.5775V1.83146H3.80901V15.5775H4.40901ZM4.10901 1.53146H1.13301V2.13146H4.10901V1.53146ZM0.833008 1.83146V18.3905H1.43301V1.83146H0.833008ZM20.153 16.7145L20.451 16.6815L20.361 15.8815L19.905 16.5445L20.153 16.7145ZM20.34 18.3905L20.042 18.4235L20.072 18.6905H20.34V18.3905ZM22.695 18.3905V18.6905H22.995V18.3905H22.695ZM12.711 9.00346L12.469 8.82646L12.29 9.07046L12.535 9.24746L12.711 9.00346ZM14.902 10.5855L14.727 10.8295L14.994 11.0215L15.161 10.7385L14.902 10.5855ZM19.965 11.4055V11.7055H20.265V11.4055H19.965ZM19.965 13.4685L20.265 13.4785L20.275 13.1685H19.965V13.4685ZM16.508 18.9245C17.237 18.9245 17.944 18.8085 18.605 18.4895C19.269 18.1695 19.87 17.6545 20.399 16.8845L19.905 16.5445C19.427 17.2395 18.903 17.6795 18.345 17.9485C17.785 18.2185 17.173 18.3245 16.508 18.3245V18.9245ZM19.854 16.7485L20.042 18.4235L20.638 18.3575L20.451 16.6815L19.854 16.7485ZM20.34 18.6905H22.695V18.0905H20.34V18.6905ZM22.995 18.3905V11.2885H22.395V18.3905H22.995ZM22.995 11.2885C22.995 9.79246 22.503 8.49846 21.57 7.57746C20.637 6.65646 19.29 6.13746 17.633 6.13746V6.73746C19.163 6.73746 20.348 7.21446 21.149 8.00446C21.949 8.79446 22.395 9.92546 22.395 11.2885H22.995ZM17.633 6.13746C15.211 6.13746 13.639 7.23046 12.469 8.82646L12.953 9.18146C14.033 7.70746 15.438 6.73746 17.633 6.73746V6.13746ZM12.535 9.24746L14.727 10.8295L15.077 10.3425L12.887 8.76046L12.535 9.24746ZM15.161 10.7385C15.628 9.94546 16.445 9.23346 17.656 9.23346V8.63346C16.172 8.63346 15.184 9.51646 14.644 10.4335L15.161 10.7385ZM17.656 9.23346C18.344 9.23346 18.833 9.45446 19.154 9.81246C19.479 10.1745 19.664 10.7125 19.664 11.4065H20.264C20.264 10.6115 20.052 9.91346 19.601 9.41146C19.145 8.90446 18.481 8.63346 17.656 8.63346V9.23346ZM19.965 11.1065H16.918V11.7065H19.965V11.1065ZM16.918 11.1065C15.583 11.1065 14.35 11.3195 13.441 11.8925C12.511 12.4795 11.954 13.4255 11.954 14.7925H12.554C12.554 13.6175 13.017 12.8695 13.762 12.3995C14.529 11.9155 15.628 11.7065 16.918 11.7065V11.1065ZM11.954 14.7925C11.954 16.0995 12.451 17.1425 13.285 17.8555C14.114 18.5635 15.251 18.9245 16.508 18.9245V18.3245C15.362 18.3245 14.373 17.9955 13.675 17.3995C12.983 16.8085 12.554 15.9355 12.554 14.7925H11.954ZM16.918 15.9105C16.408 15.9105 16.047 15.7845 15.82 15.6045C15.7116 15.5195 15.6247 15.4103 15.5664 15.2855C15.508 15.1608 15.4798 15.0241 15.484 14.8865H14.884C14.884 15.3605 15.078 15.7795 15.447 16.0735C15.809 16.3615 16.315 16.5105 16.918 16.5105V15.9105ZM15.484 14.8865C15.484 14.6025 15.597 14.3335 15.838 14.1305C16.082 13.9245 16.482 13.7685 17.082 13.7685V13.1685C16.381 13.1685 15.832 13.3525 15.452 13.6715C15.2732 13.8192 15.1295 14.0049 15.0313 14.215C14.933 14.4252 14.8827 14.6545 14.884 14.8865H15.484ZM17.082 13.7685H19.965V13.1685H17.082V13.7685ZM19.665 13.4585C19.624 14.7445 18.403 15.9105 16.918 15.9105V16.5105C18.691 16.5105 20.212 15.1215 20.265 13.4785L19.665 13.4585ZM25.754 18.3905H25.454V18.6905H25.754V18.3905ZM28.59 18.3905V18.6905H28.89V18.3905H28.59ZM33.465 18.3905H33.165V18.6905H33.465V18.3905ZM36.289 18.3905V18.6905H36.589V18.3905H36.289ZM28.589 8.04246H28.289V8.88446L28.822 8.23246L28.589 8.04246ZM28.589 6.68346H28.889V6.38346H28.589V6.68346ZM25.754 6.68346V6.38346H25.454V6.68346H25.754ZM25.754 18.6905H28.59V18.0905H25.754V18.6905ZM28.89 18.3905V11.9805H28.29V18.3905H28.89ZM28.89 11.9805C28.89 11.0085 29.135 10.3685 29.521 9.97146C29.906 9.57646 30.476 9.37446 31.227 9.37446V8.77446C30.372 8.77446 29.623 9.00546 29.091 9.55346C28.56 10.0995 28.29 10.9135 28.29 11.9805H28.89ZM31.227 9.37446C31.875 9.37446 32.346 9.61646 32.661 10.0105C32.983 10.4125 33.165 11.0005 33.165 11.7225H33.765C33.765 10.9085 33.56 10.1725 33.129 9.63546C32.691 9.08846 32.043 8.77446 31.227 8.77446V9.37446ZM33.165 11.7225V18.3905H33.765V11.7225H33.165ZM33.465 18.6905H36.289V18.0905H33.465V18.6905ZM36.589 18.3905V11.3595H35.989V18.3905H36.589ZM36.589 11.3595C36.589 10.0925 36.287 8.79346 35.561 7.80246C34.826 6.79846 33.675 6.13746 32.047 6.13746V6.73746C33.49 6.73746 34.459 7.31246 35.077 8.15746C35.705 9.01446 35.989 10.1765 35.989 11.3595H36.589ZM32.047 6.13746C30.827 6.13746 29.363 6.62146 28.357 7.85346L28.822 8.23246C29.692 7.16546 30.97 6.73746 32.047 6.73746V6.13746ZM28.89 8.04246L28.889 6.68346H28.29V8.04346L28.89 8.04246ZM28.589 6.38346H25.754V6.98346H28.59L28.589 6.38346ZM25.454 6.68346V18.3905H26.054V6.68346H25.454ZM46.766 1.83146V1.53146H46.466V1.83146H46.766ZM46.766 7.85546L46.532 8.04346L47.066 8.70846V7.85546H46.766ZM46.883 17.0785L47.181 17.0485L47.105 16.2685L46.641 16.9005L46.883 17.0785ZM47.012 18.3905L46.713 18.4205L46.74 18.6905H47.012V18.3905ZM49.672 18.3905V18.6905H49.972V18.3905H49.672ZM49.672 1.83146H49.972V1.53146H49.672V1.83146ZM46.466 1.83146V7.85546H47.066V1.83046L46.466 1.83146ZM47 7.66746C46.116 6.56646 44.713 6.13746 43.437 6.13746V6.73746C44.599 6.73746 45.798 7.12946 46.532 8.04346L47 7.66746ZM43.437 6.13746C41.715 6.13746 40.372 6.90046 39.467 8.08946C38.569 9.27146 38.11 10.8625 38.11 12.5315H38.71C38.71 10.9655 39.142 9.50946 39.945 8.45246C40.743 7.40446 41.913 6.73746 43.437 6.73746V6.13746ZM38.11 12.5315C38.11 14.2165 38.569 15.8075 39.475 16.9855C40.386 18.1715 41.742 18.9235 43.485 18.9235V18.3235C41.935 18.3235 40.752 17.6635 39.95 16.6205C39.142 15.5685 38.71 14.1155 38.71 12.5315H38.11ZM43.485 18.9235C44.85 18.9235 46.243 18.4555 47.124 17.2545L46.641 16.9005C45.906 17.9025 44.722 18.3235 43.485 18.3235V18.9235ZM46.584 17.1065L46.714 18.4185L47.31 18.3605L47.181 17.0475L46.584 17.1065ZM47.012 18.6905H49.672V18.0895H47.012V18.6905ZM49.972 18.3905V1.83146H49.372V18.3905H49.972ZM49.672 1.53046H46.766V2.13046H49.672V1.53046ZM44.176 15.7345C43.28 15.7345 42.656 15.3905 42.248 14.8415C41.831 14.2805 41.616 13.4745 41.616 12.5305H41.016C41.016 13.5545 41.247 14.5005 41.767 15.1995C42.297 15.9095 43.103 16.3335 44.176 16.3335V15.7345ZM41.616 12.5305C41.616 11.5975 41.831 10.7915 42.249 10.2275C42.659 9.67446 43.281 9.32646 44.176 9.32646V8.72646C43.101 8.72646 42.295 9.15646 41.766 9.87046C41.248 10.5705 41.016 11.5175 41.016 12.5305H41.616ZM44.176 9.32646C45.071 9.32646 45.688 9.66946 46.09 10.2175C46.502 10.7775 46.712 11.5835 46.712 12.5305H47.312C47.312 11.5075 47.087 10.5605 46.574 9.86246C46.051 9.15046 45.249 8.72646 44.176 8.72646V9.32646ZM46.712 12.5305C46.712 13.4885 46.502 14.2935 46.091 14.8505C45.689 15.3945 45.073 15.7345 44.176 15.7345V16.3335C45.247 16.3335 46.049 15.9175 46.573 15.2075C47.088 14.5105 47.312 13.5635 47.312 12.5305H46.712ZM53.129 18.3905H52.829V18.6905H53.129V18.3905ZM55.989 18.3905V18.6905H56.289V18.3905H55.989ZM55.989 14.9565L55.766 14.7555L55.688 14.8415V14.9565H55.989ZM57.793 12.9645L58.047 12.8045L57.836 12.4705L57.571 12.7635L57.793 12.9645ZM61.227 18.3905L60.973 18.5505L61.061 18.6905H61.227V18.3905ZM64.602 18.3905V18.6905H65.168L64.85 18.2225L64.602 18.3905ZM59.738 11.2185L59.523 11.0105L59.353 11.1855L59.49 11.3865L59.738 11.2185ZM64.121 6.68346L64.337 6.89146L64.828 6.38346H64.121V6.68346ZM60.406 6.68346V6.38346H60.273L60.184 6.48146L60.406 6.68346ZM55.988 11.5465H55.688V12.3235L56.21 11.7485L55.988 11.5465ZM55.988 1.83146H56.288V1.53146H55.988V1.83146ZM53.128 1.83146V1.53146H52.828V1.83146H53.128ZM53.128 18.6905H55.989L55.988 18.0905H53.128V18.6905ZM56.288 18.3905V14.9565H55.688V18.3905H56.288ZM56.211 15.1585L58.015 13.1665L57.571 12.7635L55.766 14.7555L56.211 15.1585ZM57.539 13.1255L60.973 18.5505L61.48 18.2305L58.047 12.8045L57.539 13.1255ZM61.227 18.6905H64.602V18.0905H61.227V18.6905ZM64.85 18.2225L59.987 11.0505L59.49 11.3865L64.353 18.5585L64.85 18.2225ZM59.954 11.4275L64.337 6.89146L63.905 6.47346L59.523 11.0105L59.954 11.4275ZM64.121 6.38346H60.406V6.98346H64.121V6.38346ZM60.184 6.48146L55.766 11.3445L56.21 11.7485L60.628 6.88546L60.184 6.48146ZM56.288 11.5465V1.83146H55.688V11.5465H56.288ZM55.988 1.53146H53.128V2.13146H55.988V1.53146ZM52.828 1.83146L52.829 18.3905H53.428V1.83146H52.828ZM66.137 4.46846H65.837V4.76846H66.137V4.46846ZM69.113 4.46846V4.76846H69.413V4.46846H69.113ZM69.113 1.83146H69.413V1.53146H69.113V1.83146ZM66.137 1.83146V1.53146H65.837V1.83146H66.137ZM66.207 18.3905H65.907V18.6905H66.207V18.3905ZM69.043 18.3905V18.6905H69.343V18.3905H69.043ZM69.043 6.68346H69.343V6.38346H69.043V6.68346ZM66.207 6.68346V6.38346H65.907V6.68346H66.207ZM66.137 4.76846H69.113V4.16846H66.137V4.76846ZM69.413 4.46846V1.83146H68.813V4.46846H69.413ZM69.113 1.53146H66.137V2.13146H69.113V1.53146ZM65.837 1.83146V4.46846H66.437V1.83146H65.837ZM66.207 18.6905H69.043V18.0905H66.207V18.6905ZM69.343 18.3905V6.68346H68.743V18.3905H69.343ZM69.043 6.38346H66.207V6.98346H69.043V6.38346ZM65.907 6.68346V18.3905H66.507V6.68346H65.907ZM78.711 18.2735L78.817 18.5535L79.011 18.4805V18.2735H78.711ZM78.711 15.6835H79.011V15.2045L78.581 15.4135L78.711 15.6835ZM75.758 9.07346V8.77346H75.458V9.07346H75.758ZM78.711 9.07346V9.37346H79.011V9.07346H78.711ZM78.711 6.68346H79.011V6.38346H78.711V6.68346ZM75.758 6.68346H75.458V6.98346H75.758V6.68346ZM75.758 1.73846H76.058V1.14746L75.581 1.49546L75.758 1.73846ZM72.968 3.77746L72.792 3.53546L72.669 3.62546V3.77746H72.968ZM72.968 6.68346V6.98346H73.268V6.68346H72.968ZM71.035 6.68346V6.38346H70.735V6.68346H71.035ZM71.035 9.07346H70.735V9.37346H71.035V9.07346ZM72.922 9.07346H73.222V8.77346H72.922V9.07346ZM76.602 18.9245C77.446 18.9245 78.349 18.7295 78.817 18.5535L78.605 17.9925C78.205 18.1435 77.375 18.3245 76.602 18.3245V18.9245ZM79.011 18.2735V15.6835H78.411V18.2735H79.011ZM78.581 15.4135C78.211 15.5925 77.614 15.8055 77.082 15.8055V16.4055C77.745 16.4055 78.437 16.1495 78.842 15.9535L78.581 15.4135ZM77.082 15.8055C76.744 15.8055 76.502 15.7305 76.344 15.5815C76.189 15.4365 76.058 15.1675 76.058 14.6515H75.458C75.458 15.2615 75.614 15.7195 75.933 16.0195C76.249 16.3155 76.67 16.4055 77.082 16.4055V15.8055ZM76.058 14.6525V9.07446H75.458V14.6525H76.058ZM75.758 9.37446H78.711V8.77446L75.758 8.77346V9.37446ZM79.011 9.07446V6.68346H78.411V9.07346H79.011V9.07446ZM78.711 6.38346H75.758V6.98346H78.711V6.38346ZM76.058 6.68346V1.73846H75.458V6.68346H76.058ZM75.581 1.49546L72.792 3.53546L73.146 4.01946L75.935 1.97946L75.581 1.49546ZM72.669 3.77746V6.68346H73.268L73.269 3.77746H72.669ZM72.969 6.38346H71.035V6.98346H72.968L72.969 6.38346ZM70.735 6.68346V9.07346H71.335V6.68346H70.735ZM71.035 9.37346H72.922V8.77346H71.035V9.37346ZM72.622 9.07346V15.1565H73.222V9.07446H72.622V9.07346ZM72.622 15.1565C72.622 16.2885 72.987 17.2405 73.689 17.9075C74.389 18.5735 75.39 18.9245 76.602 18.9245V18.3245C75.504 18.3245 74.665 18.0085 74.102 17.4725C73.542 16.9395 73.222 16.1565 73.222 15.1565H72.622ZM81.934 18.3905H81.634V18.6905H81.934V18.3905ZM84.804 18.3905V18.6905H85.104V18.3905H84.804ZM84.804 15.2965H85.104V14.9965H84.804V15.2965ZM81.934 15.2965V14.9965H81.634V15.2965H81.934ZM81.934 18.6905H84.804V18.0905H81.934V18.6905ZM85.104 18.3905V15.2965H84.504V18.3905H85.104ZM84.804 14.9965H81.934V15.5965H84.804V14.9965ZM81.634 15.2965V18.3905H82.234V15.2965H81.634Z" fill="#335EEA"/>
</svg>
