<svg width="134" height="49" viewBox="0 0 134 49" fill="none" xmlns="http://www.w3.org/2000/svg">
<g clip-path="url(#clip0_1_55)">
<path d="M16.1234 36.8656C12.3043 36.8656 8.56592 34.1168 8.56592 27.9117C8.56592 21.6865 12.3043 18.9781 16.1234 18.9781C18.0027 18.9781 19.4778 19.4632 20.5286 20.1504L19.3768 22.6769C18.6695 22.1716 17.6187 21.8482 16.5679 21.8482C14.2644 21.8482 12.1628 23.6672 12.1628 27.8713C12.1628 32.0754 14.3249 33.9348 16.5679 33.9348C17.6187 33.9348 18.6695 33.6115 19.3767 33.1062L20.5286 35.6933C19.4374 36.4209 18.0027 36.8656 16.1234 36.8656ZM29.2783 36.8656C24.4083 36.8656 21.7208 33.0051 21.7208 27.9117C21.7208 22.8183 24.3881 18.9781 29.2783 18.9781C34.1482 18.9781 36.8358 22.7981 36.8358 27.9117C36.8358 33.0051 34.1482 36.8656 29.2783 36.8656ZM29.2783 21.7471C26.5705 21.7471 25.2368 24.1725 25.2368 27.8713C25.2368 31.5701 26.5705 34.0157 29.2782 34.0157C31.986 34.0157 33.3197 31.5701 33.3197 27.8713C33.3197 24.1725 31.986 21.7471 29.2783 21.7471ZM41.5238 16.2091C40.372 16.2091 39.4425 15.3197 39.4425 14.2283C39.4425 13.1369 40.372 12.2475 41.5238 12.2475C42.6756 12.2475 43.6051 13.1369 43.6051 14.2283C43.6051 15.3197 42.6554 16.2091 41.5238 16.2091ZM39.7658 19.3217H43.2819V36.5018H39.7658V19.3217ZM57.0631 36.5018V25.0416C57.0631 23.0407 55.8507 21.7875 53.4663 21.7875C52.1932 21.7875 51.0212 22.0098 50.3139 22.2928V36.5219H46.8383V20.1908C48.5559 19.4834 50.7585 18.9781 53.446 18.9781C58.2554 18.9781 60.5792 21.0801 60.5792 24.7182V36.522H57.0631V36.5018ZM69.8139 36.8656C67.5911 36.8656 65.3885 36.3199 64.0346 35.6529V11.4795H67.5103V19.7664C68.3388 19.3823 69.6724 19.0589 70.8646 19.0589C75.29 19.0589 78.3009 22.2524 78.3009 27.5075C78.3009 33.9955 74.9465 36.8656 69.8139 36.8656ZM70.2584 21.7875C69.3087 21.7875 68.1771 22.0098 67.5103 22.3535V33.6317C68.0154 33.854 69.0056 34.0763 69.9957 34.0763C72.7641 34.0763 74.805 32.1562 74.805 27.7703C74.8253 24.0108 73.047 21.7875 70.2584 21.7875ZM87.7578 36.8656C82.8273 36.8656 80.3216 34.8646 80.3216 31.469C80.3216 26.6788 85.4138 25.8299 90.607 25.5469V24.4555C90.607 22.2928 89.1723 21.5248 86.9697 21.5248C85.3532 21.5248 83.3728 22.0301 82.2211 22.5758L81.3319 20.1908C82.706 19.5845 85.0299 18.9781 87.3335 18.9781C91.4355 18.9781 93.9412 20.5748 93.9412 24.8193V35.6529C92.7086 36.3199 90.1827 36.8656 87.7578 36.8656ZM90.6272 27.8713C87.1112 28.0532 83.6154 28.3564 83.6154 31.4084C83.6154 33.2274 85.0096 34.3391 87.6568 34.3391C88.7682 34.3391 90.0816 34.1572 90.6272 33.8944V27.8713ZM101.782 36.8656C99.7811 36.8656 97.6796 36.3199 96.4267 35.6529L97.5988 32.9849C98.4879 33.5306 100.367 34.0965 101.681 34.0965C103.56 34.0965 104.813 33.1668 104.813 31.7317C104.813 30.1755 103.499 29.5691 101.761 28.9223C99.4578 28.0532 96.8915 27.0022 96.8915 23.7885C96.8915 20.9589 99.0941 18.9781 102.913 18.9781C104.995 18.9781 106.712 19.4834 107.925 20.1908L106.833 22.6162C106.066 22.1312 104.53 21.6056 103.297 21.6056C101.478 21.6056 100.468 22.5556 100.468 23.8087C100.468 25.365 101.741 25.9107 103.439 26.5575C105.823 27.4468 108.47 28.4372 108.47 31.7924C108.45 34.8443 106.086 36.8656 101.782 36.8656ZM125.404 27.8309L113.987 29.4276C114.33 32.52 116.351 34.0763 119.241 34.0763C120.958 34.0763 122.817 33.6519 123.989 33.0253L125 35.6326C123.666 36.34 121.362 36.8453 118.998 36.8453C113.583 36.8453 110.552 33.3689 110.552 27.8915C110.552 22.6364 113.482 18.9579 118.291 18.9579C122.757 18.9579 125.404 21.8886 125.404 26.5171C125.444 26.9415 125.444 27.3862 125.404 27.8309ZM118.271 21.5248C115.603 21.5248 113.845 23.5662 113.785 27.1437L122.11 25.9916C122.07 23.0002 120.554 21.5248 118.271 21.5248Z" fill="#869AB8"/>
</g>
<defs>
<clipPath id="clip0_1_55">
<rect width="133.312" height="47.8281" fill="white" transform="translate(0.34375 0.234375)"/>
</clipPath>
</defs>
</svg>
