<svg width="134" height="49" viewBox="0 0 134 49" fill="none" xmlns="http://www.w3.org/2000/svg">
<g clip-path="url(#clip0_1_58)">
<path d="M46.6052 21.6082C47.8262 21.6082 48.8159 20.6198 48.8159 19.4007C48.8159 18.1815 47.8262 17.1933 46.6052 17.1933C45.3842 17.1933 44.3944 18.1815 44.3944 19.4007C44.3944 20.6199 45.3842 21.6082 46.6052 21.6082ZM119.566 29.1502C119.23 28.9142 118.97 28.8751 118.755 29.3335C115.042 37.3612 108.784 33.3552 109.406 33.7078C110.794 33.074 114.444 30.1517 113.892 26.1167C113.557 23.6507 111.437 22.5568 109.187 22.9485C105.258 23.6322 103.813 27.8619 104.549 31.6067C104.677 32.2498 104.907 32.7802 105.137 33.2997C100.698 36.9034 98.9349 30.0738 98.7348 29.2576C98.7269 29.2139 102.163 26.3552 103.118 19.5433C104.12 12.4039 101.838 11.1039 99.5051 11.1445C95.1878 11.2196 94.0212 20.2238 95.5885 27.7282C95.4572 27.7623 94.8464 28.1001 93.8647 28.1379C93.1584 25.9193 90.1402 23.9745 89.3503 24.724C87.3734 26.5986 89.8298 30.2636 91.5582 30.5511C90.5198 36.9346 84.0266 35.3537 85.2353 27.3561C87.3498 23.4365 88.958 17.6083 88.671 14.0898C88.5694 12.8442 87.6467 11.1753 85.5602 11.258C81.5468 11.4165 81.1106 20.4233 81.5811 26.8157C81.5577 26.6583 81.3343 27.5924 79.6897 28.0568C79.3007 25.9014 75.8239 23.7378 75.0055 24.778C73.4734 26.7248 76.1286 30.196 77.3863 30.4381C76.3479 36.8215 69.8549 35.2405 71.0637 27.243C73.1781 23.3236 74.7861 17.4953 74.4991 13.9769C74.3975 12.7311 73.475 11.0621 71.3883 11.1447C67.3749 11.3034 66.9387 20.3101 67.4092 26.7026C67.3856 26.5426 67.157 27.5075 65.4453 27.9642C65.388 25.1678 61.8985 23.8855 61.0602 24.7778C59.5663 26.3684 61.4024 29.6318 63.101 30.4381C62.0627 36.8215 55.5697 35.2405 56.7784 27.243C58.8929 23.3236 60.501 17.4953 60.2139 13.9769C60.1124 12.7311 59.1898 11.0621 57.103 11.1447C53.0899 11.3034 52.767 20.7629 53.2374 27.1552C51.9156 32.8086 47.4826 39.8688 48.0585 25.7258C48.1154 24.7337 48.1775 24.3571 47.682 23.9856C47.3107 23.6969 46.4664 23.8358 46.0049 23.8473C45.444 23.8697 45.3033 24.1973 45.1794 24.6925C44.8906 25.9713 44.8387 27.2109 44.7974 28.9023C44.7704 29.6935 44.7068 30.0627 44.4015 31.1416C44.0967 32.2202 42.3575 34.1918 41.4053 33.8621C40.0842 33.4087 40.5176 29.6861 40.7652 27.1283C40.9714 25.1071 40.3109 24.1994 38.6186 23.8693C37.6278 23.6632 37.0259 23.6948 35.994 23.3701C35.0183 23.0631 34.7976 21.2207 32.7165 21.8347C31.5782 22.1708 32.31 24.5783 32.0363 26.3627C30.6914 35.1403 27.8929 35.3813 26.5945 31.1174C32.4418 16.8218 28.286 11.1861 25.8534 11.1861C23.3196 11.1861 20.4234 12.9282 21.6498 24.075C21.0535 23.9013 20.8701 23.8077 20.2173 23.8077C16.5253 23.8077 14.0099 26.787 14.0099 30.4623C14.0099 34.1375 16.5255 37.117 20.2175 37.117C22.3971 37.117 23.9273 36.1276 25.0862 34.597C25.8423 35.6779 26.7631 37.1336 28.4469 37.0681C33.4657 36.873 34.9253 26.5963 35.0977 26.0231C35.6342 26.1056 36.1418 26.2618 36.6373 26.3444C37.4628 26.4682 37.5228 26.7943 37.504 27.6232C37.2853 34.6125 38.5773 37.0598 41.5082 37.0598C43.1411 37.0598 44.5966 35.4583 45.5992 34.3131C46.3481 35.8559 47.5414 37.0126 49.1423 37.0596C53.0214 37.1559 54.5066 30.9841 54.3712 31.7963C54.2649 32.4336 55.6297 37.0249 59.6232 37.0415C64.57 37.0623 65.4895 31.632 65.5991 30.7225C65.6128 30.5415 65.6189 30.5602 65.5991 30.7225L65.5953 30.7776C67.1658 30.486 67.9761 29.6455 67.9761 29.6455C67.9761 29.6455 69.2371 37.126 73.9082 37.0417C78.7589 36.954 79.6737 32.0453 79.7937 31.0881C79.8095 30.861 79.8189 30.8876 79.7937 31.0881L79.7918 31.1162C81.6573 30.4388 82.148 29.7588 82.148 29.7588C82.148 29.7588 83.1502 37.0906 88.0801 37.1547C92.4733 37.2121 94.1015 32.7213 94.111 30.8417C94.852 30.8496 96.2226 30.4028 96.1905 30.3774C96.1905 30.3774 97.7997 36.7878 102.293 37.117C104.403 37.2716 105.986 35.9319 106.888 35.3208C109.009 37.0348 116.069 39.2242 120.527 31.6793C121.157 30.5964 119.804 29.3173 119.566 29.1502ZM20.0394 34.6282C17.8853 34.6282 16.5041 32.64 16.5041 30.4962C16.5041 28.3526 17.772 26.3644 19.926 26.3644C20.8953 26.3644 21.4345 26.4709 22.1895 27.1263C22.3264 27.6648 22.7144 28.9069 22.9031 29.471C23.1561 30.2258 23.457 30.8683 23.7603 31.5675C23.3269 33.3611 21.9061 34.6282 20.0394 34.6282ZM25.2885 27.1893C25.1989 27.0468 25.2176 27.1344 25.1174 26.9998C24.7225 25.9276 23.9616 23.5344 23.8735 20.8161C23.7739 17.7412 24.2873 14.1368 25.8009 14.1368C26.8264 14.1368 27.9164 21.4416 25.2883 27.1893H25.2885ZM55.6182 23.9853C55.3753 22.1606 55.3625 14.026 57.3189 14.25C58.399 14.6868 56.634 22.3628 55.6182 23.9853ZM69.9035 23.9853C69.6605 22.1606 69.6478 14.026 71.6041 14.25C72.6843 14.6868 70.9192 22.3628 69.9035 23.9853ZM84.0754 24.0987C83.8322 22.2738 83.8197 14.1392 85.7758 14.3632C86.856 14.8 85.0909 22.4761 84.0754 24.0987ZM99.721 13.7739C101.51 13.5888 101.436 21.3856 97.8457 26.308C97.3828 24.5288 96.6729 14.3848 99.721 13.7737V13.7739ZM107.239 30.5511C106.664 27.6544 108.149 25.7518 109.679 25.5432C110.214 25.4579 110.989 25.8038 111.144 26.4505C111.398 27.6691 111.107 29.4768 107.682 31.7703C107.687 31.7899 107.367 31.1963 107.239 30.5511H107.239Z" fill="#869AB8"/>
</g>
<defs>
<clipPath id="clip0_1_58">
<rect width="133.312" height="47.8281" fill="white" transform="translate(0.671875 0.234375)"/>
</clipPath>
</defs>
</svg>
