<svg width="49" height="49" viewBox="0 0 49 49" fill="none" xmlns="http://www.w3.org/2000/svg">
<path fill-rule="evenodd" clip-rule="evenodd" d="M34.8565 17.6513C34.6679 17.4618 34.5191 17.2364 34.4191 16.9884C34.3191 16.7404 34.2698 16.4749 34.2742 16.2076C34.2786 15.9402 34.3365 15.6765 34.4446 15.4319C34.5527 15.1874 34.7087 14.9669 34.9034 14.7837C35.0981 14.6005 35.3276 14.4582 35.5783 14.3652C35.829 14.2722 36.0958 14.2304 36.3629 14.2423C36.63 14.2542 36.892 14.3195 37.1335 14.4344C37.3749 14.5493 37.5908 14.7115 37.7685 14.9113L45.7685 23.4113C46.1172 23.7822 46.3114 24.2721 46.3114 24.7813C46.3114 25.2904 46.1172 25.7803 45.7685 26.1513L37.7685 34.6513C37.4012 35.0203 36.9044 35.2315 36.3838 35.24C35.8631 35.2485 35.3597 35.0537 34.9805 34.6969C34.6013 34.3401 34.3762 33.8494 34.353 33.3292C34.3299 32.8091 34.5105 32.3004 34.8565 31.9113L41.5665 24.7813L34.8565 17.6513ZM13.7685 17.6513L7.0585 24.7813L13.7685 31.9113C14.1145 32.3004 14.2951 32.8091 14.272 33.3292C14.2488 33.8494 14.0237 34.3401 13.6445 34.6969C13.2653 35.0537 12.7619 35.2485 12.2412 35.24C11.7206 35.2315 11.2238 35.0203 10.8565 34.6513L2.8565 26.1513C2.50775 25.7803 2.31358 25.2904 2.31358 24.7813C2.31358 24.2721 2.50775 23.7822 2.8565 23.4113L10.8565 14.9113C11.2238 14.5422 11.7206 14.331 12.2412 14.3225C12.7619 14.314 13.2653 14.5088 13.6445 14.8657C14.0237 15.2225 14.2488 15.7131 14.272 16.2333C14.2951 16.7535 14.1145 17.2622 13.7685 17.6513Z" fill="#335EEA"/>
<path opacity="0.3" d="M29.8678 11.2759C30.1537 10.209 29.5205 9.1123 28.4536 8.82641C27.3867 8.54053 26.29 9.1737 26.0041 10.2406L18.7572 37.2866C18.4713 38.3535 19.1045 39.4502 20.1714 39.736C21.2383 40.0219 22.335 39.3888 22.6209 38.3218L29.8678 11.2759Z" fill="#335EEA"/>
</svg>
