<svg width="21" height="22" viewBox="0 0 21 22" fill="none" xmlns="http://www.w3.org/2000/svg">
<rect y="0.28125" width="20.75" height="20.75" rx="10.375" fill="#42BA96" fill-opacity="0.1"/>
<path d="M12.6536 6.48169L7.1875 11.9478L4.90894 9.66919C4.80103 9.56958 4.67444 9.51978 4.52917 9.51978C4.38391 9.51978 4.26147 9.56958 4.16187 9.66919C4.05396 9.7771 4 9.90369 4 10.049C4 10.1942 4.05396 10.3167 4.16187 10.4163L6.81396 13.0808C6.91357 13.1804 7.03809 13.2302 7.1875 13.2302C7.33691 13.2302 7.46143 13.1804 7.56104 13.0808L13.4006 7.22876C13.5085 7.12915 13.5625 7.00671 13.5625 6.86145C13.5625 6.71619 13.5085 6.5896 13.4006 6.48169C13.301 6.38208 13.1786 6.33228 13.0333 6.33228C12.8881 6.33228 12.7615 6.38208 12.6536 6.48169Z" fill="#42BA96"/>
</svg>
