<svg width="134" height="49" viewBox="0 0 134 49" fill="none" xmlns="http://www.w3.org/2000/svg">
<g clip-path="url(#clip0_1_61)">
<path d="M13.2182 9.80249C12.1146 9.80249 10.6838 10.9726 9.83977 11.7515C7.98412 13.3983 6.30336 16.4264 6.30336 18.8569C6.30336 22.3106 9.24119 23.6142 9.98425 23.6142C10.2292 23.6142 10.4381 23.4879 10.4381 23.1555C10.4381 22.895 10.2728 22.6782 10.1084 22.4555C9.42805 21.4156 9.20952 20.4231 9.20952 19.0846C9.20952 16.2938 10.497 13.7357 11.5648 12.5652C11.7617 12.3533 12.2066 11.8957 12.3398 11.8957C12.4719 11.8957 12.5047 12.0033 12.5047 12.3359L12.3806 30.6024C12.3806 33.4579 11.5565 34.5922 11.5565 35.2646C11.5565 35.56 11.6844 35.6367 11.9287 35.6367C13.0852 35.6367 14.2378 34.2274 14.5644 33.7134C15.5769 31.9647 15.8252 30.5997 15.8252 26.6624V11.3131C15.8252 10.8976 15.7087 10.718 15.3139 10.4618C14.7366 10.0953 14.0751 9.80249 13.2182 9.80249ZM46.2871 9.85346C45.7432 9.85346 45.5106 10.1378 45.4849 11.0175L45.3642 14.6602L42.1778 14.5498C41.9845 14.5448 41.8971 14.6059 41.8126 14.7757C41.542 15.283 41.3996 15.6805 41.3996 16.3423C41.3996 16.8812 41.644 16.9387 41.8619 16.9387L45.1772 17.0339L45.167 23.9932C45.167 25.4692 44.2354 27.384 42.5824 28.9766C42.5824 28.9766 42.7245 28.4958 42.7164 27.9913C42.7164 26.5633 41.7973 25.2693 40.5718 24.3536L37.5808 22.104C38.2078 21.3789 39.27 19.9407 39.27 18.7262C39.27 17.7846 38.6779 17.3891 37.574 17.3891C36.016 17.3891 34.2091 18.8158 34.2091 20.9316C34.2091 21.7029 34.5524 22.3971 35.0741 22.9281C34.3538 24.2946 33.3345 26.0924 32.5777 27.3728C32.0061 28.3531 31.0391 29.8551 30.4669 29.8551C30.0451 29.8551 29.8501 29.1916 29.8501 26.6422C29.8501 24.5241 30.0006 22.2213 30.0761 20.0108C30.0761 19.5042 29.993 19.0367 29.3351 18.5785C28.7299 18.1908 27.9825 17.6494 27.2126 17.6494C25.5011 17.6494 24.3351 19.224 23.5353 20.7636C22.7075 22.3593 22.26 23.7041 21.6285 25.6551L21.6982 18.9405C21.7197 18.4617 21.5988 18.2758 21.2156 18.113C20.7185 17.9022 19.9868 17.6592 19.3378 17.6592C18.7953 17.6592 18.7294 17.893 18.7294 18.4628L18.6564 26.5197L18.6481 29.6272C18.6481 32.4289 18.999 32.896 20.6618 32.896C21.5825 32.896 21.8773 32.7879 21.8956 32.0228C21.9209 31.5168 22.163 30.2908 22.4905 29.0613C23.4483 25.4322 24.5832 22.5617 26.5401 20.374C26.7441 20.1616 26.9019 20.2377 26.8698 20.5387C26.8698 20.5387 26.5604 25.4502 26.5604 27.459C26.5604 31.0319 27.1103 32.8962 28.8884 32.8962C30.6335 32.8962 32.3474 30.6544 33.2831 29.1411L36.2844 24.1221C38.2292 25.7789 39.5863 27.0635 39.5863 28.6262C39.5863 29.5975 38.9734 30.5478 38.0397 30.5478C36.8729 30.5478 36.1274 29.3176 35.3393 29.3176C34.6851 29.3176 33.8455 30.5801 33.8455 31.2971C33.8455 31.9739 35.3228 32.9314 37.9735 32.9314C41.8864 32.9314 43.9855 30.2467 45.2452 27.2736C45.4863 30.8023 46.8926 32.8635 49.0859 32.8635C50.5245 32.8635 52.1872 31.0462 52.9436 28.8265C52.9436 28.8265 53.0183 29.4027 53.5927 30.5833C54.3834 32.125 55.5853 32.8329 57.0783 32.8329C58.9353 32.8329 60.5236 31.7074 61.4933 29.8188C61.6403 31.2499 62.8422 32.8259 64.7749 32.8259C65.9881 32.8259 67.0942 31.8965 67.8202 30.3656C67.8202 30.3656 68.7607 32.894 71.4807 32.894C73.0086 32.894 74.8177 31.479 75.25 30.4508L75.2976 31.946L71.2618 35.667C70.0898 36.8044 68.8433 38.4385 68.8433 40.2478C68.8433 42.5488 71.0163 43.8719 72.9286 43.8719C74.9164 43.8719 76.2353 42.6128 76.9578 41.5578C77.8671 40.1927 78.2512 37.6198 78.2512 35.1047L78.161 31.3228C80.8812 28.3335 83.01 24.2016 83.9578 21.278L86.0225 21.2237C86.4225 21.1967 86.4025 21.3542 86.3472 21.5873C85.9844 23.1205 85.6674 24.8568 85.6674 26.5859C85.6674 29.4427 86.3256 30.6858 87.2716 31.7018C88.0942 32.553 88.9121 32.8402 89.7731 32.8402C91.4568 32.8402 92.5138 31.45 92.849 30.5737C93.6397 32.1153 94.8045 32.8333 96.2971 32.8333C98.1542 32.8333 99.7425 31.7079 100.712 29.8193C100.859 31.2503 102.061 32.8264 103.994 32.8264C105.438 32.8264 106.275 31.9933 106.934 30.4238C106.947 30.9287 106.967 31.4669 106.982 31.9715C106.999 32.2326 107.208 32.3978 107.395 32.466C108.008 32.6982 108.547 32.8144 109.031 32.8144C110.293 32.8144 110.567 32.5553 110.567 31.7303C110.567 30.3698 110.607 28.22 110.994 26.494C111.404 24.7756 112.024 22.8302 112.879 21.4767C112.956 21.3368 113.144 21.3736 113.152 21.543C113.275 24.4391 113.469 29.3417 114.23 30.6108C114.605 31.2162 115.186 31.6574 116.055 31.6574C116.462 31.6574 116.962 31.4836 117.09 31.3753C117.219 31.2744 117.284 31.1622 117.277 30.9541C117.277 27.2518 118.431 23.6675 119.588 21.2576C119.62 21.1861 119.71 21.1806 119.707 21.2746L119.642 23.9422C119.642 28.3235 119.958 31.0915 122.147 32.4222C122.578 32.663 123.063 32.7888 123.556 32.7874C124.676 32.7874 125.691 32.162 126.193 31.1563C126.602 30.3747 126.985 28.8704 126.985 28.0183C126.985 27.6885 126.989 27.1516 126.448 27.1516C126.152 27.1516 125.974 27.3703 125.903 27.7004C125.73 28.4162 125.589 29.03 125.321 29.7376C125.066 30.4131 124.684 30.8065 124.232 30.8065C123.701 30.8065 123.431 30.3885 123.277 30.1301C122.599 29.0963 122.545 26.7213 122.545 24.739L122.708 19.6368C122.708 19.2146 122.532 18.7094 121.88 18.337C121.443 18.0853 120.337 17.6115 119.659 17.6115C119.031 17.6115 118.726 17.9673 118.5 18.4896C118.075 19.4279 116.653 23.1078 116.272 26.0997C116.258 26.1785 116.16 26.1952 116.153 26.0946C115.955 23.9788 115.853 21.4296 115.856 19.7097C115.856 19.1898 115.728 18.4465 114.625 17.9649C114.089 17.7425 113.646 17.6064 113.104 17.6064C112.432 17.6064 112.288 17.9352 112.047 18.3708C111.286 19.7769 110.76 21.6105 109.971 23.9234L109.983 18.6309C109.983 18.3835 109.831 18.0591 109.396 17.9717C108.319 17.7242 107.819 17.6117 107.394 17.6117C107.085 17.6117 106.915 17.8582 106.915 18.1247L106.857 27.1485C106.649 28.2531 105.804 30.8898 104.605 30.8898C103.622 30.8898 103.163 29.8934 103.163 25.7283L103.341 18.9591C103.341 18.5315 103.061 18.3519 102.651 18.1709C102.066 17.9385 101.601 17.8463 101.006 17.8463C100.26 17.8463 100.004 18.2034 100.155 19.0613C99.3345 17.9516 98.5143 17.3383 97.0654 17.3383C94.1565 17.3383 91.9638 20.8366 91.9638 25.9203C91.9353 27.3459 92.2798 28.7627 92.2798 28.7627C92.0166 29.9459 91.3979 30.9102 90.5431 30.9102C89.4647 30.9102 88.7774 29.3859 88.7774 26.7442C88.7774 24.0946 89.7868 21.1061 89.7868 20.2962C89.7868 19.3545 89.1697 18.7588 88.0772 18.7588C87.53 18.7588 85.4999 19.2192 84.4592 19.3702C84.4592 19.3702 84.5766 18.8747 84.5679 18.4851C84.5679 17.5565 84.1322 16.9746 83.0504 16.9746C81.7284 16.9746 80.7578 17.9184 80.7578 19.5284C80.7578 20.2508 81.1739 20.9192 81.7248 21.2782C81.0098 24.26 79.8472 26.4775 78.134 28.9547L78.2783 18.9235C78.2783 18.5974 78.1914 18.3948 77.5526 18.1469C77.2148 18.001 76.6643 17.8325 75.9704 17.8325C74.9647 17.8325 75.0313 18.5505 75.0851 19.0881C74.6249 18.2724 73.6176 17.3041 72.0634 17.3041C67.8283 17.3041 66.5281 23.7608 67.1657 28.3462C67.1657 28.9053 66.6197 30.8898 65.3863 30.8898C64.4027 30.8898 63.9436 29.8934 63.9436 25.7283L64.1239 18.9591C64.1239 18.5314 63.8412 18.3519 63.432 18.1709C62.847 17.9385 62.3832 17.8463 61.7886 17.8463C61.0422 17.8463 60.7861 18.2034 60.9371 19.0612C60.1168 17.9515 59.2949 17.3381 57.8459 17.3381C54.937 17.3381 52.7153 20.5375 52.7153 25.6211C52.7153 27.5616 51.0441 30.5228 49.8722 30.5228C49.2212 30.5228 48.528 29.3279 48.528 26.2752C48.5313 24.1943 48.8151 17.1105 48.8151 17.1105L52.9057 17.0442C53.1009 17.0423 53.2139 16.8291 53.2863 16.6977C53.4741 16.3166 53.565 16.0629 53.565 15.6069C53.565 15.1956 53.4826 15.0453 52.955 15.0156L48.878 14.7709L49.0514 10.9737C49.0637 10.734 48.9189 10.5776 48.6572 10.4606C47.8679 10.1521 46.9001 9.85355 46.2871 9.85346ZM58.6672 19.8031C59.7578 19.8031 60.8645 20.7976 60.8645 24.3258C60.8645 28.7682 59.2458 30.8351 58.001 30.8351C56.8341 30.8351 55.9482 29.1883 55.9482 25.9537C55.9482 22.6841 56.8133 19.8031 58.6672 19.8031ZM97.9439 19.8031C99.0345 19.8031 100.141 20.7976 100.141 24.3258C100.141 28.7682 98.5225 30.8351 97.2777 30.8351C96.1108 30.8351 95.2248 29.1883 95.2248 25.9537C95.2249 22.6841 96.09 19.8031 97.9439 19.8031ZM73.0324 19.8235C74.4556 19.8235 75.0853 21.2902 75.0853 24.1338C75.0853 28.421 73.8106 30.8621 72.2625 30.8621C71.2742 30.8621 70.1378 29.2396 70.1977 26.0486C70.1977 24.0083 70.8631 19.8235 73.0324 19.8235ZM75.442 34.1653V35.854C75.442 41.4576 73.9485 42.414 72.7485 42.414C72.2937 42.414 71.18 42.0706 71.18 40.6844C71.18 38.7465 73.2065 36.542 73.8362 35.8608L75.442 34.1653Z" fill="#869AB8"/>
</g>
<defs>
<clipPath id="clip0_1_61">
<rect width="133.312" height="47.8281" fill="white" transform="translate(0 0.234375)"/>
</clipPath>
</defs>
</svg>
