<svg width="318" height="74" viewBox="0 0 318 74" fill="none" xmlns="http://www.w3.org/2000/svg">
<path d="M99.233 43.2713V15.0895H101.038V43.2713H99.233ZM105.31 23.544C105.178 22.4285 104.642 21.5625 103.702 20.946C102.763 20.3295 101.611 20.0213 100.246 20.0213C99.2476 20.0213 98.3743 20.1828 97.6257 20.5057C96.8845 20.8286 96.3047 21.2726 95.8864 21.8377C95.4754 22.4028 95.2699 23.045 95.2699 23.7642C95.2699 24.366 95.413 24.8834 95.6992 25.3164C95.9928 25.7421 96.3671 26.098 96.8221 26.3842C97.2771 26.6631 97.7541 26.8943 98.2532 27.0778C98.7522 27.2539 99.2109 27.397 99.6293 27.5071L101.919 28.1236C102.506 28.2777 103.159 28.4905 103.879 28.7621C104.605 29.0336 105.299 29.4042 105.959 29.8739C106.627 30.3363 107.177 30.9308 107.61 31.6573C108.043 32.3839 108.26 33.2756 108.26 34.3324C108.26 35.5507 107.941 36.6515 107.302 37.6349C106.671 38.6184 105.746 39.4 104.528 39.9798C103.317 40.5595 101.846 40.8494 100.114 40.8494C98.4991 40.8494 97.101 40.5889 95.9194 40.0678C94.7451 39.5468 93.8204 38.8202 93.1452 37.8881C92.4774 36.9561 92.0994 35.8736 92.0114 34.6406H94.8295C94.9029 35.492 95.1892 36.1965 95.6882 36.7543C96.1946 37.3047 96.8331 37.7157 97.6037 37.9872C98.3816 38.2514 99.2183 38.3835 100.114 38.3835C101.156 38.3835 102.092 38.2147 102.921 37.8771C103.75 37.5322 104.407 37.0552 104.891 36.446C105.376 35.8295 105.618 35.1103 105.618 34.2884C105.618 33.5398 105.409 32.9306 104.99 32.4609C104.572 31.9912 104.022 31.6096 103.339 31.3161C102.657 31.0225 101.919 30.7656 101.126 30.5455L98.3523 29.7528C96.5909 29.2464 95.1965 28.5236 94.169 27.5842C93.1416 26.6448 92.6278 25.4155 92.6278 23.8963C92.6278 22.634 92.9691 21.5331 93.6516 20.5938C94.3415 19.647 95.2662 18.9131 96.4258 18.392C97.5927 17.8636 98.8954 17.5994 100.334 17.5994C101.787 17.5994 103.079 17.86 104.209 18.381C105.339 18.8948 106.234 19.5993 106.895 20.4947C107.563 21.39 107.915 22.4065 107.952 23.544H105.31Z" fill="#161C2D"/>
<path d="M111.409 56.4531V53.0014L124.372 38.8111C125.893 37.1491 127.146 35.7045 128.131 34.4773C129.115 33.2372 129.844 32.0739 130.317 30.9872C130.803 29.8878 131.045 28.7372 131.045 27.5355C131.045 26.1548 130.713 24.9595 130.048 23.9496C129.396 22.9396 128.501 22.1598 127.364 21.6101C126.226 21.0604 124.947 20.7855 123.528 20.7855C122.02 20.7855 120.703 21.0987 119.578 21.7251C118.466 22.3388 117.603 23.2017 116.989 24.3139C116.388 25.4261 116.088 26.7301 116.088 28.2259H111.562C111.562 25.9247 112.093 23.9048 113.154 22.1662C114.215 20.4276 115.66 19.0724 117.488 18.1009C119.329 17.1293 121.393 16.6435 123.682 16.6435C125.983 16.6435 128.022 17.1293 129.799 18.1009C131.576 19.0724 132.969 20.3828 133.979 22.032C134.989 23.6811 135.494 25.5156 135.494 27.5355C135.494 28.9801 135.232 30.3928 134.708 31.7734C134.197 33.1413 133.302 34.669 132.023 36.3565C130.758 38.0312 129 40.0767 126.75 42.4929L117.929 51.9276V52.2344H136.185V56.4531H111.409ZM155.387 16.6435C156.998 16.6562 158.609 16.9631 160.22 17.5639C161.83 18.1648 163.301 19.1619 164.63 20.5554C165.96 21.9361 167.027 23.8217 167.833 26.2124C168.638 28.603 169.041 31.6009 169.041 35.206C169.041 38.696 168.708 41.7962 168.043 44.5064C167.392 47.2038 166.445 49.4794 165.205 51.3331C163.978 53.1868 162.482 54.593 160.718 55.5518C158.967 56.5107 156.985 56.9901 154.774 56.9901C152.575 56.9901 150.612 56.5554 148.887 55.6861C147.173 54.804 145.767 53.5831 144.668 52.0234C143.581 50.451 142.884 48.6293 142.578 46.5582H147.257C147.678 48.3608 148.516 49.8501 149.769 51.0263C151.034 52.1896 152.703 52.7713 154.774 52.7713C157.803 52.7713 160.194 51.4482 161.945 48.8018C163.71 46.1555 164.592 42.4162 164.592 37.5838H164.285C163.569 38.6577 162.719 39.5845 161.735 40.3643C160.75 41.1442 159.657 41.745 158.455 42.1669C157.254 42.5888 155.975 42.7997 154.62 42.7997C152.37 42.7997 150.306 42.2436 148.426 41.1314C146.56 40.0064 145.064 38.4659 143.939 36.5099C142.827 34.5412 142.271 32.2912 142.271 29.7599C142.271 27.3565 142.808 25.1577 143.882 23.1634C144.968 21.1562 146.49 19.5582 148.445 18.3693C150.414 17.1804 152.728 16.6051 155.387 16.6435ZM155.387 20.8622C153.776 20.8622 152.325 21.2649 151.034 22.0703C149.756 22.8629 148.74 23.9368 147.985 25.2919C147.244 26.6342 146.873 28.1236 146.873 29.7599C146.873 31.3963 147.231 32.8857 147.947 34.228C148.676 35.5575 149.666 36.6186 150.919 37.4112C152.185 38.1911 153.623 38.581 155.234 38.581C156.448 38.581 157.58 38.3445 158.628 37.8714C159.676 37.3857 160.59 36.7273 161.37 35.8963C162.163 35.0526 162.783 34.1001 163.23 33.0391C163.678 31.9652 163.901 30.8466 163.901 29.6832C163.901 28.1491 163.531 26.7109 162.789 25.3686C162.061 24.0263 161.051 22.9396 159.759 22.1087C158.481 21.2777 157.024 20.8622 155.387 20.8622Z" fill="#161C2D"/>
<path d="M183.249 36.956L176.217 63.0781H173.916L180.947 36.956H183.249ZM185.919 59.7969V43.4332H188.348V45.9901H188.561C188.902 45.1165 189.452 44.4382 190.212 43.9553C190.972 43.4652 191.885 43.2202 192.95 43.2202C194.03 43.2202 194.928 43.4652 195.645 43.9553C196.37 44.4382 196.934 45.1165 197.339 45.9901H197.51C197.929 45.1449 198.557 44.4737 199.395 43.9766C200.234 43.4723 201.238 43.2202 202.41 43.2202C203.873 43.2202 205.07 43.6783 206.001 44.5945C206.931 45.5036 207.396 46.9205 207.396 48.8452V59.7969H204.882V48.8452C204.882 47.6378 204.552 46.7749 203.891 46.2564C203.231 45.7379 202.453 45.4787 201.558 45.4787C200.408 45.4787 199.516 45.8267 198.884 46.5227C198.252 47.2116 197.936 48.0852 197.936 49.1435V59.7969H195.379V48.5895C195.379 47.6591 195.077 46.9098 194.474 46.3416C193.87 45.7663 193.092 45.4787 192.14 45.4787C191.487 45.4787 190.876 45.6527 190.308 46.0007C189.747 46.3487 189.292 46.8317 188.944 47.4496C188.604 48.0604 188.433 48.767 188.433 49.5696V59.7969H185.919ZM218.331 60.1378C216.854 60.1378 215.557 59.7862 214.442 59.0831C213.334 58.38 212.468 57.3963 211.843 56.1321C211.225 54.8679 210.916 53.3906 210.916 51.7003C210.916 49.9957 211.225 48.5078 211.843 47.2365C212.468 45.9652 213.334 44.978 214.442 44.2749C215.557 43.5717 216.854 43.2202 218.331 43.2202C219.808 43.2202 221.101 43.5717 222.209 44.2749C223.324 44.978 224.19 45.9652 224.808 47.2365C225.433 48.5078 225.746 49.9957 225.746 51.7003C225.746 53.3906 225.433 54.8679 224.808 56.1321C224.19 57.3963 223.324 58.38 222.209 59.0831C221.101 59.7862 219.808 60.1378 218.331 60.1378ZM218.331 57.8793C219.453 57.8793 220.376 57.5916 221.101 57.0163C221.825 56.4411 222.361 55.6847 222.709 54.7472C223.057 53.8097 223.231 52.794 223.231 51.7003C223.231 50.6065 223.057 49.5874 222.709 48.6428C222.361 47.6982 221.825 46.9347 221.101 46.3523C220.376 45.7699 219.453 45.4787 218.331 45.4787C217.209 45.4787 216.285 45.7699 215.561 46.3523C214.836 46.9347 214.3 47.6982 213.952 48.6428C213.604 49.5874 213.43 50.6065 213.43 51.7003C213.43 52.794 213.604 53.8097 213.952 54.7472C214.3 55.6847 214.836 56.4411 215.561 57.0163C216.285 57.5916 217.209 57.8793 218.331 57.8793Z" fill="#161C2D"/>
</svg>
