<svg width="134" height="49" viewBox="0 0 134 49" fill="none" xmlns="http://www.w3.org/2000/svg">
<g clip-path="url(#clip0_1_64)">
<path d="M103.678 36.3834C105.122 36.5232 106.565 36.6733 108.005 36.8286L111.184 28.9902L114.206 37.5516C115.756 37.7455 117.304 37.9489 118.852 38.1618L113.554 23.1487L118.853 10.081H114.365L114.318 10.1452L111.455 17.2047L108.942 10.082H104.51L109.085 23.0465L103.678 36.3834H103.678ZM100.326 36.0763V10.0809H95.8962V35.7114C97.3738 35.8253 98.8521 35.9475 100.326 36.0759V36.0763ZM67.0482 34.6226C68.2441 34.6226 69.4387 34.6316 70.6311 34.6412V25.091H75.9529V21.0241H70.6315V14.1527H76.7607V10.081H66.1842V34.6261C66.4714 34.6261 66.76 34.6216 67.0482 34.6226ZM53.294 34.8711C54.7712 34.8186 56.2487 34.7744 57.7264 34.7386V14.1534H61.8672V10.082H49.1533V14.1534H53.2947V34.871L53.294 34.8711ZM19.4132 37.6121V22.1247L24.6586 36.9867C26.2737 36.8058 27.89 36.6352 29.5072 36.4749V10.0814H25.2566V26.1237L19.5964 10.0814H15.1636V38.1687H15.1902C16.5946 37.9748 18.0038 37.7905 19.4132 37.6121ZM44.8815 14.1523V10.0813H34.304V36.0348C37.8232 35.7315 41.3465 35.4771 44.8729 35.2718V31.1969C42.8314 31.3158 40.7909 31.4516 38.7517 31.6044V25.0928H44.0734V21.0234H38.7516V14.1523H44.8815ZM85.5402 31.0022V10.08H81.0908V34.8859C84.6302 35.0157 88.1556 35.1965 91.6694 35.4243V31.3471C89.6273 31.2158 87.5841 31.1008 85.5402 31.0019V31.0023L85.5402 31.0022Z" fill="#869AB8"/>
</g>
<defs>
<clipPath id="clip0_1_64">
<rect width="133.312" height="47.8281" fill="white" transform="translate(0.328125 0.234375)"/>
</clipPath>
</defs>
</svg>
