<svg width="36" height="17" viewBox="0 0 36 17" fill="none" xmlns="http://www.w3.org/2000/svg">
<path opacity="0.3" fill-rule="evenodd" clip-rule="evenodd" d="M8 0.28125H28C30.1217 0.28125 32.1566 1.1241 33.6569 2.6244C35.1571 4.12469 36 6.15952 36 8.28125C36 10.403 35.1571 12.4378 33.6569 13.9381C32.1566 15.4384 30.1217 16.2812 28 16.2812H8C5.87827 16.2812 3.84344 15.4384 2.34315 13.9381C0.842854 12.4378 0 10.403 0 8.28125C0 6.15952 0.842854 4.12469 2.34315 2.6244C3.84344 1.1241 5.87827 0.28125 8 0.28125ZM28 12.2812C29.0609 12.2812 30.0783 11.8598 30.8284 11.1097C31.5786 10.3595 32 9.34212 32 8.28125C32 7.22038 31.5786 6.20297 30.8284 5.45282C30.0783 4.70268 29.0609 4.28125 28 4.28125C26.9391 4.28125 25.9217 4.70268 25.1716 5.45282C24.4214 6.20297 24 7.22038 24 8.28125C24 9.34212 24.4214 10.3595 25.1716 11.1097C25.9217 11.8598 26.9391 12.2812 28 12.2812Z" fill="#335EEA"/>
</svg>
