<svg width="36" height="17" viewBox="0 0 36 17" fill="none" xmlns="http://www.w3.org/2000/svg">
<path fill-rule="evenodd" clip-rule="evenodd" d="M8 0.28125H28C30.1217 0.28125 32.1566 1.1241 33.6569 2.6244C35.1571 4.12469 36 6.15952 36 8.28125C36 10.403 35.1571 12.4378 33.6569 13.9381C32.1566 15.4384 30.1217 16.2812 28 16.2812H8C5.87827 16.2812 3.84344 15.4384 2.34315 13.9381C0.842854 12.4378 0 10.403 0 8.28125C0 6.15952 0.842854 4.12469 2.34315 2.6244C3.84344 1.1241 5.87827 0.28125 8 0.28125ZM8 12.2812C9.06087 12.2812 10.0783 11.8598 10.8284 11.1097C11.5786 10.3595 12 9.34212 12 8.28125C12 7.22038 11.5786 6.20297 10.8284 5.45282C10.0783 4.70268 9.06087 4.28125 8 4.28125C6.93913 4.28125 5.92172 4.70268 5.17157 5.45282C4.42143 6.20297 4 7.22038 4 8.28125C4 9.34212 4.42143 10.3595 5.17157 11.1097C5.92172 11.8598 6.93913 12.2812 8 12.2812Z" fill="#335EEA"/>
</svg>
