<svg width="134" height="49" viewBox="0 0 134 49" fill="none" xmlns="http://www.w3.org/2000/svg">
<g clip-path="url(#clip0_1_67)">
<path d="M34.7052 19.537C36.0147 19.537 37.271 18.447 37.4896 17.1023C37.7478 15.7935 36.8602 14.7035 35.5517 14.7035C34.2428 14.7035 32.9863 15.7935 32.7644 17.1023C32.5091 18.447 33.3602 19.537 34.7052 19.537ZM123.568 23.4273H126.498C126.899 23.4273 127.134 23.2643 127.224 22.8898C127.365 22.3097 127.509 21.7306 127.657 21.1525C127.744 20.8155 127.547 20.5599 127.174 20.5599H124.283C124.491 19.7317 125.302 17.0428 125.302 15.2897C125.302 11.7887 122.328 8.81074 118.109 8.81074C113.344 8.81074 110.244 12.0078 110.244 16.5064C110.244 17.8186 110.734 19.3481 111.341 20.2968C111.08 20.2819 110.818 20.2745 110.557 20.2746C106.936 20.2746 104.656 22.2382 104.656 25.0954C104.656 27.777 106.77 28.819 108.761 29.5125C110.529 30.1286 112.157 30.4153 112.157 31.7964C112.157 32.7276 111.261 33.2741 109.508 33.2741C107.427 33.2741 106.284 32.2945 105.993 31.923C106.19 31.7681 106.484 31.3995 106.484 30.7853C106.484 29.9261 105.88 29.2248 104.759 29.2248C103.81 29.2248 103.008 29.9984 102.807 31.0159C101.283 32.262 99.6206 33.0696 97.2622 33.0696C94.94 33.0696 93.7347 31.862 93.7347 29.2924C94.2791 29.4582 95.6967 29.6572 96.6336 29.6572C100.566 29.6572 103.245 27.871 103.245 24.2941C103.245 22.3706 101.557 20.3506 98.2152 20.3506H98.2076C93.813 20.3506 91.3514 23.1338 90.2766 26.1951C89.9754 26.1225 89.6738 26.0521 89.3716 25.984C89.612 25.3049 89.7845 24.518 89.7845 23.6456C89.7845 22.1336 88.848 20.3506 86.342 20.3506C84.5964 20.3506 82.9406 21.4937 81.7929 23.207C82.0785 22.0894 82.2678 21.3451 82.2801 21.2953C82.3549 21.0029 82.2331 20.6774 81.7772 20.6774H79.2051C78.8385 20.6774 78.5798 20.8069 78.4756 21.2242C78.4057 21.5025 77.522 24.9692 76.6617 28.3448C76.1197 30.4496 73.3165 33.0696 69.7931 33.0696C67.4705 33.0696 66.2662 31.7826 66.2662 29.212C66.8739 29.4539 68.228 29.6569 69.1645 29.6569C73.2565 29.6569 75.7763 27.8708 75.7763 24.2939C75.7763 22.3704 74.0876 20.3504 70.746 20.3504H70.7387C65.7902 20.3504 62.7588 24.1932 62.2452 28.5503C62.0315 30.3616 60.5025 32.8487 58.8449 32.8487C58.0373 32.8487 57.587 32.3416 57.587 31.4807C57.587 30.7372 58.1105 28.9191 58.6844 26.6406C58.8766 25.8784 59.1684 24.7156 59.492 23.4273H62.1822C62.5827 23.4273 62.8176 23.2643 62.9086 22.8898C63.0374 22.3505 63.2736 21.4098 63.3406 21.1525C63.4273 20.8155 63.2321 20.5599 62.8572 20.5599H60.2117C60.2117 20.5599 61.4296 15.7012 61.4586 15.5764C61.5759 15.0823 61.1624 14.7972 60.7297 14.8881C60.7297 14.8881 58.6849 15.2883 58.3057 15.3674C57.9246 15.4445 57.6287 15.6539 57.491 16.2032L56.408 20.5599H54.2837C53.8833 20.5599 53.6477 20.7233 53.558 21.0971C53.4168 21.677 53.2728 22.2562 53.1259 22.8347C53.0381 23.1718 53.2342 23.4273 53.6088 23.4273H55.692C55.6772 23.4869 54.9396 26.2923 54.3429 28.8046C54.0621 30.0127 53.1215 32.8398 51.5811 32.8398C50.661 32.8398 50.2722 32.3757 50.2722 31.3804C50.2722 29.813 51.8155 25.8891 51.8155 24.1087C51.8155 21.7303 50.5393 20.3523 47.9247 20.3523C46.2767 20.3523 44.5678 21.4162 43.8437 22.35C43.8437 22.35 44.0634 21.5856 44.1386 21.2918C44.2188 20.9813 44.0523 20.6764 43.6446 20.6764H41.0883C40.5443 20.6764 40.3939 20.9671 40.3141 21.2869C40.2821 21.4152 39.361 25.0315 38.4767 28.5031C37.8719 30.8803 36.4023 32.8666 34.831 32.8666C34.0231 32.8666 33.6633 32.3597 33.6633 31.4988C33.6633 30.7549 34.144 28.9193 34.7177 26.6411C35.4155 23.8674 36.0313 21.5833 36.0971 21.3165C36.183 20.9745 36.0301 20.6766 35.5893 20.6766H33.0176C32.5517 20.6766 32.3854 20.921 32.2872 21.2606C32.2872 21.2606 31.5634 24 30.7969 27.0496C30.2403 29.2628 29.6255 31.5171 29.6255 32.5763C29.6255 34.4664 30.4744 35.8912 32.808 35.8912C34.6092 35.8912 36.0346 34.978 37.123 33.8144C36.9631 34.4442 36.861 34.8429 36.8507 34.8836C36.7568 35.2436 36.8705 35.5619 37.2948 35.5619H39.9265C40.3846 35.5619 40.5607 35.3776 40.6564 34.9782C40.7485 34.5971 42.714 26.8677 42.714 26.8677C43.2334 24.7915 44.5184 23.4166 46.3262 23.4166C47.1834 23.4166 47.9253 23.984 47.8394 25.0868C47.744 26.3 46.2806 30.6585 46.2806 32.5714C46.2806 34.0193 46.8176 35.8925 49.5437 35.8925C51.402 35.8925 52.7699 35.0018 53.7646 33.8522C54.1289 35.0723 55.0938 35.8925 56.8638 35.8925C59.8054 35.8925 61.5784 34.1483 62.6201 32.3962C63.4846 34.4318 65.5091 35.8915 68.4779 35.8915C71.5039 35.8915 73.8455 34.6162 75.505 32.8824L74.9875 34.912C74.8934 35.2775 75.0525 35.565 75.4818 35.565H78.0865C78.4431 35.565 78.6969 35.3837 78.7894 35.0092C78.8352 34.8253 79.2115 33.3712 79.743 31.305C80.7596 27.3513 82.3934 23.2493 84.8485 23.2493C85.7142 23.2493 86.0693 23.7332 86.0693 24.4956C86.0693 24.8551 85.9649 25.1657 85.8747 25.3322C84.6848 25.0958 83.7275 25.6831 83.7275 26.9534C83.7275 27.781 84.5985 28.5333 85.7742 28.5333C86.6726 28.5333 87.4153 28.3131 88.0076 27.9144C88.5906 28.0347 89.1723 28.1611 89.7526 28.2938C89.6634 28.8671 89.6177 29.4464 89.6161 30.0266C89.6161 33.2 91.8825 35.8913 95.9451 35.8913C99.1285 35.8913 101.313 34.727 103.199 33.2343C104.106 34.7173 106.394 35.9157 109.397 35.9157C113.513 35.9157 115.847 33.7761 115.847 30.9479C115.847 28.3881 113.745 27.4459 111.578 26.6615C109.816 26.0251 108.346 25.6791 108.346 24.4341C108.346 23.4136 109.15 22.9469 110.527 22.9469C111.42 22.9469 112.091 23.1392 112.449 23.2397C112.805 24.1287 113.54 25.1131 114.795 25.1131C115.857 25.1131 116.333 24.2734 116.333 23.5001C116.333 21.2988 112.666 21.068 112.666 16.3469C112.666 13.4113 114.327 10.9895 117.768 10.9895C120.159 10.9895 121.721 12.5053 121.721 14.9518C121.721 16.9689 120.497 20.5598 120.497 20.5598H118.417C118.017 20.5598 117.781 20.7231 117.691 21.0968C117.55 21.6769 117.406 22.2561 117.258 22.8345C117.171 23.1716 117.367 23.4271 117.742 23.4271H119.773C119.773 23.4271 117.673 31.1679 117.673 32.5757C117.673 34.4659 118.739 35.8902 121.073 35.8902C124.375 35.8902 126.439 33.7447 127.336 30.625C127.406 30.3837 127.269 30.1873 127.025 30.1873H125.765C125.513 30.1873 125.367 30.3306 125.304 30.5763C125.019 31.6838 124.314 32.8489 122.925 32.8489C122.118 32.8489 121.668 32.3418 121.668 31.4811C121.668 30.7374 122.16 28.9962 122.766 26.6411C123.054 25.5195 123.568 23.4273 123.568 23.4273ZM97.5311 23.295C98.6989 23.295 99.2536 24.0717 99.2536 24.9972C99.2536 26.5627 98.0392 27.5174 96.1396 27.5174C95.4599 27.5174 94.5095 27.3563 93.9484 27.1694C94.1843 25.7297 95.2265 23.295 97.5311 23.295ZM70.0623 23.295C71.3404 23.295 71.7842 24.0717 71.7842 24.9972C71.7842 26.5627 70.5703 27.5174 68.671 27.5174C67.991 27.5174 67.0407 27.3563 66.4797 27.1694C66.7142 25.7297 67.6384 23.295 70.0623 23.295ZM19.5293 8.77686C11.1969 8.77686 6.99576 14.7495 6.99576 19.7301C6.99576 22.7459 8.13775 25.4288 10.5871 26.4284C10.9887 26.5928 11.3485 26.434 11.465 25.9894C11.546 25.6818 11.7377 24.9057 11.8232 24.5823C11.9409 24.1425 11.8951 23.9883 11.5709 23.6051C10.8647 22.7722 10.4134 21.6939 10.4134 20.1666C10.4134 15.7355 13.7293 11.7686 19.048 11.7686C23.7578 11.7686 26.345 14.6457 26.345 18.4881C26.345 23.5437 24.1074 27.8107 20.785 27.8107C18.9504 27.8107 17.577 26.2936 18.0172 24.4331C18.5443 22.2119 19.5653 19.8147 19.5653 18.2114C19.5653 16.7762 18.7948 15.5791 17.2001 15.5791C15.3246 15.5791 13.8179 17.5189 13.8179 20.1175C13.8179 21.7726 14.3773 22.8919 14.3773 22.8919C14.3773 22.8919 12.458 31.0225 12.1216 32.4464C11.4516 35.2822 12.0207 38.7585 12.0688 39.1096C12.0973 39.3176 12.3647 39.3671 12.4858 39.2101C12.6588 38.9844 14.8924 36.2273 15.652 33.4721C15.8668 32.692 16.8855 28.6527 16.8855 28.6527C17.4948 29.8147 19.2757 30.8383 21.1695 30.8383C26.8071 30.8383 30.6321 25.6997 30.6321 18.8215C30.6321 13.6206 26.226 8.77686 19.5293 8.77686Z" fill="#869AB8"/>
</g>
<defs>
<clipPath id="clip0_1_67">
<rect width="133.312" height="47.8281" fill="white" transform="translate(0.65625 0.234375)"/>
</clipPath>
</defs>
</svg>
