<svg width="48" height="49" viewBox="0 0 48 49" fill="none" xmlns="http://www.w3.org/2000/svg">
<g clip-path="url(#clip0_1_145)">
<path fill-rule="evenodd" clip-rule="evenodd" d="M24 16.5626H16C13.8783 16.5626 11.8434 17.4054 10.3431 18.9057C8.84285 20.406 8 22.4408 8 24.5626V26.5626C8 28.1539 8.63214 29.68 9.75736 30.8052C10.8826 31.9304 12.4087 32.5626 14 32.5626V36.5626C11.3478 36.5626 8.8043 35.509 6.92893 33.6336C5.05357 31.7583 4 29.2147 4 26.5626V24.5626C4 21.38 5.26428 18.3277 7.51472 16.0773C9.76515 13.8268 12.8174 12.5626 16 12.5626H24V10.0186C24 9.83284 24.0517 9.6508 24.1493 9.49282C24.247 9.33485 24.3867 9.20718 24.5528 9.12413C24.7189 9.04107 24.9048 9.00592 25.0898 9.0226C25.2748 9.03927 25.4514 9.10713 25.6 9.21855L31.312 13.4846C31.4368 13.5778 31.5382 13.6989 31.6079 13.8382C31.6777 13.9775 31.7139 14.1312 31.7137 14.2871C31.7135 14.4429 31.6769 14.5965 31.6068 14.7356C31.5367 14.8748 31.4351 14.9956 31.31 15.0886L25.596 19.3306C25.4473 19.4409 25.2708 19.5078 25.0863 19.5238C24.9018 19.5398 24.7165 19.5043 24.551 19.4211C24.3855 19.3379 24.2464 19.2105 24.1491 19.0529C24.0518 18.8953 24.0002 18.7138 24 18.5286V16.5626Z" fill="#335EEA"/>
<path opacity="0.3" fill-rule="evenodd" clip-rule="evenodd" d="M24.116 32.5625H32C34.1217 32.5625 36.1566 31.7196 37.6569 30.2194C39.1571 28.7191 40 26.6842 40 24.5625V22.5625C40 20.9712 39.3679 19.4451 38.2426 18.3199C37.1174 17.1946 35.5913 16.5625 34 16.5625V12.5625C36.6522 12.5625 39.1957 13.6161 41.0711 15.4914C42.9464 17.3668 44 19.9103 44 22.5625V24.5625C44 27.7451 42.7357 30.7973 40.4853 33.0478C38.2348 35.2982 35.1826 36.5625 32 36.5625H24.116V38.5285C24.1158 38.7137 24.0642 38.8952 23.9669 39.0528C23.8696 39.2104 23.7305 39.3379 23.565 39.421C23.3995 39.5042 23.2142 39.5398 23.0297 39.5238C22.8452 39.5078 22.6687 39.4409 22.52 39.3305L16.806 35.0905C16.6807 34.9975 16.5788 34.8764 16.5087 34.737C16.4385 34.5975 16.402 34.4436 16.402 34.2875C16.402 34.1314 16.4385 33.9775 16.5087 33.838C16.5788 33.6986 16.6807 33.5775 16.806 33.4845L22.518 29.2165C22.6667 29.105 22.8436 29.0371 23.0287 29.0205C23.2138 29.0039 23.3999 29.0392 23.5661 29.1225C23.7323 29.2058 23.872 29.3338 23.9694 29.492C24.0669 29.6503 24.1184 29.8326 24.118 30.0185V32.5625H24.116Z" fill="#335EEA"/>
</g>
<defs>
<clipPath id="clip0_1_145">
<rect width="48" height="48" fill="white" transform="translate(0 0.5625)"/>
</clipPath>
</defs>
</svg>
