<svg width="62" height="31" viewBox="0 0 62 31" fill="none" xmlns="http://www.w3.org/2000/svg">
<path d="M2.17756 22.875V21.5966L6.97869 16.3409C7.54214 15.7254 8.00616 15.1903 8.37074 14.7358C8.73532 14.2765 9.00521 13.8456 9.1804 13.4432C9.36032 13.036 9.45028 12.6098 9.45028 12.1648C9.45028 11.6534 9.32718 11.2107 9.08097 10.8366C8.83949 10.4626 8.50805 10.1738 8.08665 9.97017C7.66525 9.76657 7.19176 9.66477 6.66619 9.66477C6.10748 9.66477 5.61979 9.78078 5.20312 10.0128C4.79119 10.2401 4.47159 10.5597 4.24432 10.9716C4.02178 11.3835 3.91051 11.8665 3.91051 12.4205H2.23438C2.23438 11.5682 2.43087 10.8201 2.82386 10.1761C3.21686 9.5322 3.75189 9.0303 4.42898 8.67045C5.1108 8.31061 5.87547 8.13068 6.72301 8.13068C7.57528 8.13068 8.33049 8.31061 8.98864 8.67045C9.64678 9.0303 10.1629 9.51562 10.5369 10.1264C10.911 10.7372 11.098 11.4167 11.098 12.1648C11.098 12.6998 11.0009 13.223 10.8068 13.7344C10.6174 14.241 10.286 14.8068 9.8125 15.4318C9.34375 16.0521 8.69271 16.8097 7.85938 17.7045L4.59233 21.1989V21.3125H11.3537V22.875H2.17756ZM13.4235 19.892V18.4432L19.8156 8.32955H20.8667V10.5739H20.1565L15.3269 18.2159V18.3295H23.9349V19.892H13.4235ZM20.2701 22.875V19.4517V18.777V8.32955H21.9462V22.875H20.2701ZM31.5569 7.64773L26.8694 25.0625H25.3353L30.0228 7.64773H31.5569ZM39.1749 22.875L45.6806 10.0057V9.89205H38.1806V8.32955H47.4988V9.97727L41.0215 22.875H39.1749Z" fill="#161C2D"/>
</svg>
